1.ufo
<glyph name="zero" format="2">
	<advance width="503"/>
	<unicode hex="0030"/>
	<outline>
		<contour>
			<point x="101" y="525" type="curve"/>
			<point x="402" y="525" type="line"/>
			<point x="422" y="525"/>
			<point x="432" y="539"/>
			<point x="432" y="559" type="curve" smooth="yes"/>
			<point x="432" y="666" type="line" smooth="yes"/>
			<point x="432" y="683"/>
			<point x="427" y="700"/>
			<point x="410" y="700" type="curve" smooth="yes"/>
			<point x="384" y="700"/>
			<point x="359" y="654"/>
			<point x="333" y="654" type="curve" smooth="yes"/>
			<point x="309" y="654"/>
			<point x="279" y="700"/>
			<point x="253" y="700" type="curve" smooth="yes"/>
			<point x="252" y="700"/>
			<point x="252" y="700"/>
			<point x="251" y="700" type="curve" smooth="yes"/>
			<point x="250" y="700" type="line" smooth="yes"/>
			<point x="224" y="700"/>
			<point x="199" y="654"/>
			<point x="173" y="654" type="curve" smooth="yes"/>
			<point x="149" y="654"/>
			<point x="119" y="700"/>
			<point x="93" y="700" type="curve" smooth="yes"/>
			<point x="76" y="700"/>
			<point x="71" y="683"/>
			<point x="71" y="666" type="curve" smooth="yes"/>
			<point x="71" y="559" type="line"/>
			<point x="71" y="539"/>
			<point x="81" y="525"/>
		</contour>
		<contour>
			<point x="93" y="0" type="curve" smooth="yes"/>
			<point x="119" y="0"/>
			<point x="149" y="46"/>
			<point x="173" y="46" type="curve" smooth="yes"/>
			<point x="199" y="46"/>
			<point x="224" y="0"/>
			<point x="250" y="0" type="curve" smooth="yes"/>
			<point x="251" y="0"/>
			<point x="251" y="0"/>
			<point x="252" y="0" type="curve" smooth="yes"/>
			<point x="253" y="0" type="line" smooth="yes"/>
			<point x="279" y="0"/>
			<point x="309" y="46"/>
			<point x="333" y="46" type="curve" smooth="yes"/>
			<point x="359" y="46"/>
			<point x="384" y="0"/>
			<point x="410" y="0" type="curve" smooth="yes"/>
			<point x="427" y="0"/>
			<point x="432" y="17"/>
			<point x="432" y="34" type="curve" smooth="yes"/>
			<point x="432" y="141" type="line" smooth="yes"/>
			<point x="432" y="161"/>
			<point x="422" y="175"/>
			<point x="402" y="175" type="curve"/>
			<point x="101" y="175" type="line"/>
			<point x="81" y="175"/>
			<point x="71" y="161"/>
			<point x="71" y="141" type="curve" smooth="yes"/>
			<point x="71" y="34" type="line"/>
			<point x="71" y="17"/>
			<point x="76" y="0"/>
		</contour>
		<contour>
			<point x="71" y="47" type="line"/>
			<point x="104" y="47" type="line"/>
			<point x="104" y="607" type="line"/>
			<point x="71" y="607" type="line"/>
		</contour>
		<contour>
			<point x="399" y="47" type="line"/>
			<point x="432" y="47" type="line"/>
			<point x="432" y="607" type="line"/>
			<point x="399" y="607" type="line"/>
		</contour>
		<contour>
			<point x="230" y="279" type="line"/>
			<point x="264" y="279" type="line"/>
			<point x="264" y="420" type="line"/>
			<point x="230" y="420" type="line"/>
		</contour>
	</outline>
</glyph>
<glyph name="one" format="2">
	<advance width="262"/>
	<unicode hex="0031"/>
	<outline>
		<contour>
			<point x="64" y="0" type="curve" smooth="yes"/>
			<point x="90" y="0"/>
			<point x="120" y="46"/>
			<point x="144" y="46" type="curve" smooth="yes"/>
			<point x="170" y="46"/>
			<point x="195" y="0"/>
			<point x="221" y="0" type="curve" smooth="yes"/>
			<point x="238" y="0"/>
			<point x="243" y="17"/>
			<point x="243" y="34" type="curve" smooth="yes"/>
			<point x="243" y="141" type="line" smooth="yes"/>
			<point x="243" y="161"/>
			<point x="233" y="175"/>
			<point x="213" y="175" type="curve" smooth="yes"/>
			<point x="72" y="175" type="line" smooth="yes"/>
			<point x="52" y="175"/>
			<point x="42" y="161"/>
			<point x="42" y="141" type="curve" smooth="yes"/>
			<point x="42" y="34" type="line" smooth="yes"/>
			<point x="42" y="17"/>
			<point x="47" y="0"/>
		</contour>
		<contour>
			<point x="126" y="56" type="line"/>
			<point x="160" y="56" type="line"/>
			<point x="160" y="598" type="line"/>
			<point x="126" y="598" type="line"/>
		</contour>
		<contour>
			<point x="130" y="525" type="line" smooth="yes"/>
			<point x="150" y="525"/>
			<point x="160" y="539"/>
			<point x="160" y="559" type="curve" smooth="yes"/>
			<point x="160" y="667" type="line" smooth="yes"/>
			<point x="160" y="706"/>
			<point x="125" y="712"/>
			<point x="103" y="674" type="curve"/>
			<point x="24" y="525" type="line"/>
		</contour>
	</outline>
</glyph>
<glyph name="two" format="2">
	<advance width="519"/>
	<unicode hex="0032"/>
	<outline>
		<contour>
			<point x="138" y="525" type="line"/>
			<point x="468" y="525" type="line"/>
			<point x="468" y="661" type="line" smooth="yes"/>
			<point x="468" y="688"/>
			<point x="457" y="700"/>
			<point x="428" y="700" type="curve" smooth="yes"/>
			<point x="390" y="700"/>
			<point x="367" y="654"/>
			<point x="345" y="654" type="curve" smooth="yes"/>
			<point x="321" y="654"/>
			<point x="298" y="700"/>
			<point x="273" y="700" type="curve" smooth="yes"/>
			<point x="247" y="700"/>
			<point x="234" y="654"/>
			<point x="211" y="654" type="curve" smooth="yes"/>
			<point x="184" y="654"/>
			<point x="155" y="698"/>
			<point x="116" y="700" type="curve" smooth="yes"/>
			<point x="114" y="700"/>
			<point x="114" y="700"/>
			<point x="113" y="700" type="curve" smooth="yes"/>
			<point x="87" y="699"/>
			<point x="77" y="684"/>
			<point x="77" y="667" type="curve" smooth="yes"/>
			<point x="77" y="559" type="line" smooth="yes"/>
			<point x="77" y="539"/>
			<point x="87" y="525"/>
			<point x="117" y="525" type="curve" smooth="yes"/>
		</contour>
		<contour>
			<point x="51" y="173" type="line"/>
			<point x="51" y="39" type="line" smooth="yes"/>
			<point x="51" y="12"/>
			<point x="62" y="0"/>
			<point x="91" y="0" type="curve" smooth="yes"/>
			<point x="133" y="0"/>
			<point x="156" y="46"/>
			<point x="181" y="46" type="curve" smooth="yes"/>
			<point x="205" y="46"/>
			<point x="228" y="0"/>
			<point x="256" y="0" type="curve" smooth="yes"/>
			<point x="292" y="0"/>
			<point x="305" y="46"/>
			<point x="334" y="46" type="curve" smooth="yes"/>
			<point x="361" y="46"/>
			<point x="395" y="0"/>
			<point x="427" y="0" type="curve" smooth="yes"/>
			<point x="430" y="0" type="line" smooth="yes"/>
			<point x="430" y="0"/>
			<point x="431" y="0"/>
			<point x="431" y="0" type="curve" smooth="yes"/>
			<point x="457" y="0"/>
			<point x="468" y="16"/>
			<point x="468" y="33" type="curve" smooth="yes"/>
			<point x="468" y="141" type="line" smooth="yes"/>
			<point x="468" y="161"/>
			<point x="458" y="175"/>
			<point x="428" y="175" type="curve" smooth="yes"/>
			<point x="407" y="175" type="line"/>
		</contour>
		<contour>
			<point x="210" y="285"/>
			<point x="51" y="245"/>
			<point x="51" y="159" type="curve" smooth="yes"/>
			<point x="51" y="142" type="line"/>
			<point x="82" y="142" type="line"/>
			<point x="85" y="171" type="line" smooth="yes"/>
			<point x="89" y="211"/>
			<point x="222" y="260"/>
			<point x="330" y="290" type="curve" smooth="yes"/>
			<point x="407" y="312"/>
			<point x="468" y="366"/>
			<point x="468" y="468" type="curve" smooth="yes"/>
			<point x="468" y="525" type="line"/>
			<point x="437" y="525" type="line"/>
			<point x="437" y="456" type="line" smooth="yes"/>
			<point x="437" y="414"/>
			<point x="411" y="349"/>
			<point x="335" y="325" type="curve" smooth="yes"/>
		</contour>
	</outline>
</glyph>
<glyph name="five" format="2">
	<advance width="519"/>
	<unicode hex="0035"/>
	<outline>
		<contour>
			<point x="381" y="525" type="line"/>
			<point x="402" y="525" type="line" smooth="yes"/>
			<point x="432" y="525"/>
			<point x="442" y="539"/>
			<point x="442" y="559" type="curve" smooth="yes"/>
			<point x="442" y="667" type="line" smooth="yes"/>
			<point x="442" y="684"/>
			<point x="432" y="699"/>
			<point x="406" y="700" type="curve" smooth="yes"/>
			<point x="405" y="700"/>
			<point x="405" y="700"/>
			<point x="403" y="700" type="curve" smooth="yes"/>
			<point x="364" y="698"/>
			<point x="335" y="654"/>
			<point x="308" y="654" type="curve" smooth="yes"/>
			<point x="285" y="654"/>
			<point x="272" y="700"/>
			<point x="246" y="700" type="curve" smooth="yes"/>
			<point x="221" y="700"/>
			<point x="198" y="654"/>
			<point x="174" y="654" type="curve" smooth="yes"/>
			<point x="152" y="654"/>
			<point x="129" y="700"/>
			<point x="91" y="700" type="curve" smooth="yes"/>
			<point x="62" y="700"/>
			<point x="51" y="688"/>
			<point x="51" y="661" type="curve" smooth="yes"/>
			<point x="51" y="525" type="line"/>
		</contour>
		<contour>
			<point x="468" y="173" type="line"/>
			<point x="112" y="175" type="line"/>
			<point x="91" y="175" type="line" smooth="yes"/>
			<point x="61" y="175"/>
			<point x="51" y="161"/>
			<point x="51" y="141" type="curve" smooth="yes"/>
			<point x="51" y="33" type="line" smooth="yes"/>
			<point x="51" y="16"/>
			<point x="62" y="0"/>
			<point x="88" y="0" type="curve" smooth="yes"/>
			<point x="88" y="0"/>
			<point x="89" y="0"/>
			<point x="89" y="0" type="curve" smooth="yes"/>
			<point x="92" y="0" type="line" smooth="yes"/>
			<point x="124" y="0"/>
			<point x="158" y="46"/>
			<point x="185" y="46" type="curve" smooth="yes"/>
			<point x="214" y="46"/>
			<point x="227" y="0"/>
			<point x="263" y="0" type="curve" smooth="yes"/>
			<point x="291" y="0"/>
			<point x="314" y="46"/>
			<point x="338" y="46" type="curve" smooth="yes"/>
			<point x="363" y="46"/>
			<point x="386" y="0"/>
			<point x="428" y="0" type="curve" smooth="yes"/>
			<point x="457" y="0"/>
			<point x="468" y="12"/>
			<point x="468" y="39" type="curve" smooth="yes"/>
		</contour>
		<contour>
			<point x="51" y="340" type="line"/>
			<point x="82" y="340" type="line"/>
			<point x="82" y="525" type="line"/>
			<point x="51" y="525" type="line"/>
		</contour>
		<contour>
			<point x="60" y="340" type="line"/>
			<point x="337" y="340" type="line" smooth="yes"/>
			<point x="417" y="340"/>
			<point x="437" y="293"/>
			<point x="437" y="251" type="curve"/>
			<point x="437" y="142" type="line"/>
			<point x="468" y="142" type="line"/>
			<point x="468" y="239" type="line" smooth="yes"/>
			<point x="468" y="341"/>
			<point x="410" y="367"/>
			<point x="330" y="367" type="curve" smooth="yes"/>
			<point x="60" y="367" type="line"/>
		</contour>
	</outline>
</glyph>
<glyph name="six" format="2">
	<advance width="540"/>
	<unicode hex="0036"/>
	<outline>
		<contour>
			<point x="70" y="527" type="line"/>
			<point x="426" y="525" type="line"/>
			<point x="447" y="525" type="line" smooth="yes"/>
			<point x="477" y="525"/>
			<point x="487" y="539"/>
			<point x="487" y="559" type="curve" smooth="yes"/>
			<point x="487" y="667" type="line" smooth="yes"/>
			<point x="487" y="684"/>
			<point x="476" y="700"/>
			<point x="450" y="700" type="curve" smooth="yes"/>
			<point x="450" y="700"/>
			<point x="449" y="700"/>
			<point x="449" y="700" type="curve" smooth="yes"/>
			<point x="446" y="700" type="line" smooth="yes"/>
			<point x="414" y="700"/>
			<point x="380" y="654"/>
			<point x="353" y="654" type="curve" smooth="yes"/>
			<point x="324" y="654"/>
			<point x="311" y="700"/>
			<point x="275" y="700" type="curve" smooth="yes"/>
			<point x="247" y="700"/>
			<point x="224" y="654"/>
			<point x="200" y="654" type="curve" smooth="yes"/>
			<point x="175" y="654"/>
			<point x="152" y="700"/>
			<point x="110" y="700" type="curve" smooth="yes"/>
			<point x="81" y="700"/>
			<point x="70" y="688"/>
			<point x="70" y="661" type="curve"/>
		</contour>
		<contour>
			<point x="239" y="334" type="line"/>
			<point x="356" y="334" type="line" smooth="yes"/>
			<point x="436" y="334"/>
			<point x="456" y="287"/>
			<point x="456" y="245" type="curve"/>
			<point x="456" y="136" type="line"/>
			<point x="487" y="136" type="line"/>
			<point x="487" y="233" type="line" smooth="yes"/>
			<point x="487" y="335"/>
			<point x="429" y="361"/>
			<point x="349" y="361" type="curve" smooth="yes"/>
			<point x="239" y="361" type="line"/>
		</contour>
		<contour>
			<point x="318" y="334" type="line"/>
			<point x="318" y="361" type="line"/>
			<point x="208" y="361" type="line" smooth="yes"/>
			<point x="128" y="361"/>
			<point x="70" y="335"/>
			<point x="70" y="233" type="curve" smooth="yes"/>
			<point x="70" y="136" type="line"/>
			<point x="101" y="136" type="line"/>
			<point x="101" y="245" type="line"/>
			<point x="101" y="287"/>
			<point x="121" y="334"/>
			<point x="201" y="334" type="curve" smooth="yes"/>
		</contour>
		<contour>
			<point x="70" y="173" type="line"/>
			<point x="70" y="39" type="line"/>
			<point x="70" y="12"/>
			<point x="81" y="0"/>
			<point x="110" y="0" type="curve" smooth="yes"/>
			<point x="152" y="0"/>
			<point x="175" y="46"/>
			<point x="200" y="46" type="curve" smooth="yes"/>
			<point x="224" y="46"/>
			<point x="247" y="0"/>
			<point x="275" y="0" type="curve" smooth="yes"/>
			<point x="311" y="0"/>
			<point x="324" y="46"/>
			<point x="353" y="46" type="curve" smooth="yes"/>
			<point x="380" y="46"/>
			<point x="414" y="0"/>
			<point x="446" y="0" type="curve" smooth="yes"/>
			<point x="449" y="0" type="line" smooth="yes"/>
			<point x="449" y="0"/>
			<point x="450" y="0"/>
			<point x="450" y="0" type="curve" smooth="yes"/>
			<point x="476" y="0"/>
			<point x="487" y="16"/>
			<point x="487" y="33" type="curve" smooth="yes"/>
			<point x="487" y="141" type="line" smooth="yes"/>
			<point x="487" y="161"/>
			<point x="477" y="175"/>
			<point x="447" y="175" type="curve" smooth="yes"/>
			<point x="426" y="175" type="line"/>
		</contour>
		<contour>
			<point x="101" y="574" type="line"/>
			<point x="70" y="574" type="line"/>
			<point x="70" y="256" type="line"/>
			<point x="101" y="256" type="line"/>
		</contour>
	</outline>
</glyph>
<glyph name="seven" format="2">
	<advance width="540"/>
	<unicode hex="0037"/>
	<outline>
		<contour>
			<point x="405" y="565" type="line"/>
			<point x="183" y="145" type="line"/>
			<point x="220" y="145" type="line"/>
			<point x="435" y="565" type="line"/>
		</contour>
		<contour>
			<point x="342" y="700" type="curve" smooth="yes"/>
			<point x="325" y="700"/>
			<point x="320" y="683"/>
			<point x="320" y="666" type="curve" smooth="yes"/>
			<point x="320" y="559" type="line" smooth="yes"/>
			<point x="320" y="539"/>
			<point x="330" y="525"/>
			<point x="350" y="525" type="curve" smooth="yes"/>
			<point x="491" y="525" type="line" smooth="yes"/>
			<point x="511" y="525"/>
			<point x="521" y="539"/>
			<point x="521" y="559" type="curve" smooth="yes"/>
			<point x="521" y="666" type="line" smooth="yes"/>
			<point x="521" y="683"/>
			<point x="516" y="700"/>
			<point x="499" y="700" type="curve" smooth="yes"/>
			<point x="473" y="700"/>
			<point x="448" y="654"/>
			<point x="422" y="654" type="curve" smooth="yes"/>
			<point x="398" y="654"/>
			<point x="368" y="700"/>
		</contour>
		<contour>
			<point x="136" y="175" type="line" smooth="yes"/>
			<point x="116" y="175"/>
			<point x="106" y="161"/>
			<point x="106" y="141" type="curve" smooth="yes"/>
			<point x="106" y="34" type="line" smooth="yes"/>
			<point x="106" y="17"/>
			<point x="111" y="0"/>
			<point x="128" y="0" type="curve" smooth="yes"/>
			<point x="154" y="0"/>
			<point x="184" y="46"/>
			<point x="208" y="46" type="curve" smooth="yes"/>
			<point x="234" y="46"/>
			<point x="259" y="0"/>
			<point x="285" y="0" type="curve" smooth="yes"/>
			<point x="302" y="0"/>
			<point x="307" y="17"/>
			<point x="307" y="34" type="curve" smooth="yes"/>
			<point x="307" y="141" type="line" smooth="yes"/>
			<point x="307" y="161"/>
			<point x="297" y="175"/>
			<point x="277" y="175" type="curve" smooth="yes"/>
		</contour>
		<contour>
			<point x="49" y="700" type="line" smooth="yes"/>
			<point x="29" y="700"/>
			<point x="19" y="686"/>
			<point x="19" y="666" type="curve" smooth="yes"/>
			<point x="19" y="559" type="line" smooth="yes"/>
			<point x="19" y="542"/>
			<point x="24" y="525"/>
			<point x="41" y="525" type="curve" smooth="yes"/>
			<point x="67" y="525"/>
			<point x="97" y="571"/>
			<point x="121" y="571" type="curve" smooth="yes"/>
			<point x="147" y="571"/>
			<point x="172" y="525"/>
			<point x="198" y="525" type="curve" smooth="yes"/>
			<point x="215" y="525"/>
			<point x="220" y="542"/>
			<point x="220" y="559" type="curve" smooth="yes"/>
			<point x="220" y="666" type="line" smooth="yes"/>
			<point x="220" y="686"/>
			<point x="210" y="700"/>
			<point x="190" y="700" type="curve" smooth="yes"/>
		</contour>
		<contour>
			<point x="433" y="618" type="line"/>
			<point x="109" y="620" type="line"/>
			<point x="123" y="586" type="line"/>
			<point x="445" y="591" type="line"/>
		</contour>
		<contour>
			<point x="382" y="372" type="line"/>
			<point x="142" y="373" type="line"/>
			<point x="142" y="344" type="line"/>
			<point x="382" y="344" type="line"/>
		</contour>
	</outline>
</glyph>
<glyph name="eight" format="2">
	<advance width="549"/>
	<unicode hex="0038"/>
	<outline>
		<contour>
			<point x="314" y="366" type="line"/>
			<point x="197" y="366" type="line"/>
			<point x="117" y="366"/>
			<point x="97" y="413"/>
			<point x="97" y="455" type="curve"/>
			<point x="97" y="564" type="line"/>
			<point x="66" y="564" type="line"/>
			<point x="66" y="467" type="line" smooth="yes"/>
			<point x="66" y="365"/>
			<point x="124" y="339"/>
			<point x="204" y="339" type="curve" smooth="yes"/>
			<point x="314" y="339" type="line"/>
		</contour>
		<contour>
			<point x="235" y="366" type="line"/>
			<point x="235" y="339" type="line"/>
			<point x="345" y="339" type="line" smooth="yes"/>
			<point x="425" y="339"/>
			<point x="483" y="365"/>
			<point x="483" y="467" type="curve" smooth="yes"/>
			<point x="483" y="564" type="line"/>
			<point x="452" y="564" type="line"/>
			<point x="452" y="455" type="line"/>
			<point x="452" y="413"/>
			<point x="432" y="366"/>
			<point x="352" y="366" type="curve" smooth="yes"/>
		</contour>
		<contour>
			<point x="483" y="527" type="line"/>
			<point x="483" y="661" type="line"/>
			<point x="483" y="688"/>
			<point x="472" y="700"/>
			<point x="443" y="700" type="curve" smooth="yes"/>
			<point x="401" y="700"/>
			<point x="378" y="654"/>
			<point x="353" y="654" type="curve" smooth="yes"/>
			<point x="329" y="654"/>
			<point x="306" y="700"/>
			<point x="278" y="700" type="curve" smooth="yes"/>
			<point x="242" y="700"/>
			<point x="229" y="654"/>
			<point x="200" y="654" type="curve" smooth="yes"/>
			<point x="173" y="654"/>
			<point x="139" y="700"/>
			<point x="107" y="700" type="curve" smooth="yes"/>
			<point x="104" y="700" type="line" smooth="yes"/>
			<point x="104" y="700"/>
			<point x="103" y="700"/>
			<point x="103" y="700" type="curve" smooth="yes"/>
			<point x="77" y="700"/>
			<point x="66" y="684"/>
			<point x="66" y="667" type="curve" smooth="yes"/>
			<point x="66" y="559" type="line" smooth="yes"/>
			<point x="66" y="539"/>
			<point x="76" y="525"/>
			<point x="106" y="525" type="curve" smooth="yes"/>
			<point x="127" y="525" type="line"/>
		</contour>
		<contour>
			<point x="483" y="173" type="line"/>
			<point x="127" y="175" type="line"/>
			<point x="106" y="175" type="line" smooth="yes"/>
			<point x="76" y="175"/>
			<point x="66" y="161"/>
			<point x="66" y="141" type="curve" smooth="yes"/>
			<point x="66" y="33" type="line" smooth="yes"/>
			<point x="66" y="16"/>
			<point x="77" y="0"/>
			<point x="103" y="0" type="curve" smooth="yes"/>
			<point x="103" y="0"/>
			<point x="104" y="0"/>
			<point x="104" y="0" type="curve" smooth="yes"/>
			<point x="107" y="0" type="line" smooth="yes"/>
			<point x="139" y="0"/>
			<point x="173" y="46"/>
			<point x="200" y="46" type="curve" smooth="yes"/>
			<point x="229" y="46"/>
			<point x="242" y="0"/>
			<point x="278" y="0" type="curve" smooth="yes"/>
			<point x="306" y="0"/>
			<point x="329" y="46"/>
			<point x="353" y="46" type="curve" smooth="yes"/>
			<point x="378" y="46"/>
			<point x="401" y="0"/>
			<point x="443" y="0" type="curve" smooth="yes"/>
			<point x="472" y="0"/>
			<point x="483" y="12"/>
			<point x="483" y="39" type="curve"/>
		</contour>
		<contour>
			<point x="314" y="338" type="line"/>
			<point x="314" y="365" type="line"/>
			<point x="204" y="365" type="line" smooth="yes"/>
			<point x="124" y="365"/>
			<point x="66" y="339"/>
			<point x="66" y="237" type="curve" smooth="yes"/>
			<point x="66" y="140" type="line"/>
			<point x="97" y="140" type="line"/>
			<point x="97" y="249" type="line"/>
			<point x="97" y="291"/>
			<point x="117" y="338"/>
			<point x="197" y="338" type="curve"/>
		</contour>
		<contour>
			<point x="235" y="338" type="line"/>
			<point x="352" y="338" type="line" smooth="yes"/>
			<point x="432" y="338"/>
			<point x="452" y="291"/>
			<point x="452" y="249" type="curve"/>
			<point x="452" y="140" type="line"/>
			<point x="483" y="140" type="line"/>
			<point x="483" y="237" type="line" smooth="yes"/>
			<point x="483" y="339"/>
			<point x="425" y="365"/>
			<point x="345" y="365" type="curve" smooth="yes"/>
			<point x="235" y="365" type="line"/>
		</contour>
	</outline>
</glyph>
<glyph name="nine" format="2">
	<advance width="540"/>
	<unicode hex="0039"/>
	<outline>
		<contour>
			<point x="470" y="173" type="line"/>
			<point x="114" y="175" type="line"/>
			<point x="93" y="175" type="line" smooth="yes"/>
			<point x="63" y="175"/>
			<point x="53" y="161"/>
			<point x="53" y="141" type="curve" smooth="yes"/>
			<point x="53" y="33" type="line" smooth="yes"/>
			<point x="53" y="16"/>
			<point x="64" y="0"/>
			<point x="90" y="0" type="curve" smooth="yes"/>
			<point x="90" y="0"/>
			<point x="91" y="0"/>
			<point x="91" y="0" type="curve" smooth="yes"/>
			<point x="94" y="0" type="line" smooth="yes"/>
			<point x="126" y="0"/>
			<point x="160" y="46"/>
			<point x="187" y="46" type="curve" smooth="yes"/>
			<point x="216" y="46"/>
			<point x="229" y="0"/>
			<point x="265" y="0" type="curve" smooth="yes"/>
			<point x="293" y="0"/>
			<point x="316" y="46"/>
			<point x="340" y="46" type="curve" smooth="yes"/>
			<point x="365" y="46"/>
			<point x="388" y="0"/>
			<point x="430" y="0" type="curve" smooth="yes"/>
			<point x="459" y="0"/>
			<point x="470" y="12"/>
			<point x="470" y="39" type="curve"/>
		</contour>
		<contour>
			<point x="301" y="366" type="line"/>
			<point x="184" y="366" type="line" smooth="yes"/>
			<point x="104" y="366"/>
			<point x="84" y="413"/>
			<point x="84" y="455" type="curve"/>
			<point x="84" y="564" type="line"/>
			<point x="53" y="564" type="line"/>
			<point x="53" y="467" type="line" smooth="yes"/>
			<point x="53" y="365"/>
			<point x="111" y="339"/>
			<point x="191" y="339" type="curve" smooth="yes"/>
			<point x="301" y="339" type="line"/>
		</contour>
		<contour>
			<point x="222" y="366" type="line"/>
			<point x="222" y="339" type="line"/>
			<point x="332" y="339" type="line" smooth="yes"/>
			<point x="412" y="339"/>
			<point x="470" y="365"/>
			<point x="470" y="467" type="curve" smooth="yes"/>
			<point x="470" y="564" type="line"/>
			<point x="439" y="564" type="line"/>
			<point x="439" y="455" type="line"/>
			<point x="439" y="413"/>
			<point x="419" y="366"/>
			<point x="339" y="366" type="curve" smooth="yes"/>
		</contour>
		<contour>
			<point x="470" y="527" type="line"/>
			<point x="470" y="661" type="line"/>
			<point x="470" y="688"/>
			<point x="459" y="700"/>
			<point x="430" y="700" type="curve" smooth="yes"/>
			<point x="388" y="700"/>
			<point x="365" y="654"/>
			<point x="340" y="654" type="curve" smooth="yes"/>
			<point x="316" y="654"/>
			<point x="293" y="700"/>
			<point x="265" y="700" type="curve" smooth="yes"/>
			<point x="229" y="700"/>
			<point x="216" y="654"/>
			<point x="187" y="654" type="curve" smooth="yes"/>
			<point x="160" y="654"/>
			<point x="126" y="700"/>
			<point x="94" y="700" type="curve" smooth="yes"/>
			<point x="91" y="700" type="line" smooth="yes"/>
			<point x="91" y="700"/>
			<point x="90" y="700"/>
			<point x="90" y="700" type="curve" smooth="yes"/>
			<point x="64" y="700"/>
			<point x="53" y="684"/>
			<point x="53" y="667" type="curve" smooth="yes"/>
			<point x="53" y="559" type="line" smooth="yes"/>
			<point x="53" y="539"/>
			<point x="63" y="525"/>
			<point x="93" y="525" type="curve" smooth="yes"/>
			<point x="114" y="525" type="line"/>
		</contour>
		<contour>
			<point x="439" y="126" type="line"/>
			<point x="470" y="126" type="line"/>
			<point x="470" y="444" type="line"/>
			<point x="439" y="444" type="line"/>
		</contour>
	</outline>
</glyph>
<glyph name="A" format="2">
	<advance width="603"/>
	<unicode hex="0041"/>
	<outline>
		<contour>
			<point x="108" y="145" type="line"/>
			<point x="145" y="145" type="line"/>
			<point x="317" y="565" type="line"/>
			<point x="287" y="565" type="line"/>
			<point x="459" y="145" type="line"/>
			<point x="496" y="145" type="line"/>
			<point x="318" y="580" type="line"/>
			<point x="286" y="580" type="line"/>
		</contour>
		<contour>
			<point x="53" y="0" type="curve" smooth="yes"/>
			<point x="79" y="0"/>
			<point x="109" y="46"/>
			<point x="133" y="46" type="curve" smooth="yes"/>
			<point x="159" y="46"/>
			<point x="184" y="0"/>
			<point x="210" y="0" type="curve" smooth="yes"/>
			<point x="227" y="0"/>
			<point x="232" y="17"/>
			<point x="232" y="34" type="curve" smooth="yes"/>
			<point x="232" y="141" type="line" smooth="yes"/>
			<point x="232" y="161"/>
			<point x="222" y="175"/>
			<point x="202" y="175" type="curve" smooth="yes"/>
			<point x="61" y="175" type="line" smooth="yes"/>
			<point x="41" y="175"/>
			<point x="31" y="161"/>
			<point x="31" y="141" type="curve" smooth="yes"/>
			<point x="31" y="34" type="line" smooth="yes"/>
			<point x="31" y="17"/>
			<point x="36" y="0"/>
		</contour>
		<contour>
			<point x="393" y="0" type="curve" smooth="yes"/>
			<point x="419" y="0"/>
			<point x="449" y="46"/>
			<point x="473" y="46" type="curve" smooth="yes"/>
			<point x="499" y="46"/>
			<point x="524" y="0"/>
			<point x="550" y="0" type="curve" smooth="yes"/>
			<point x="567" y="0"/>
			<point x="572" y="17"/>
			<point x="572" y="34" type="curve" smooth="yes"/>
			<point x="572" y="141" type="line" smooth="yes"/>
			<point x="572" y="161"/>
			<point x="562" y="175"/>
			<point x="542" y="175" type="curve" smooth="yes"/>
			<point x="401" y="175" type="line" smooth="yes"/>
			<point x="381" y="175"/>
			<point x="371" y="161"/>
			<point x="371" y="141" type="curve" smooth="yes"/>
			<point x="371" y="34" type="line" smooth="yes"/>
			<point x="371" y="17"/>
			<point x="376" y="0"/>
		</contour>
		<contour>
			<point x="173" y="274" type="line"/>
			<point x="420" y="274" type="line"/>
			<point x="420" y="307" type="line"/>
			<point x="173" y="307" type="line"/>
		</contour>
		<contour>
			<point x="232" y="525" type="curve" smooth="yes"/>
			<point x="373" y="525" type="line" smooth="yes"/>
			<point x="393" y="525"/>
			<point x="403" y="539"/>
			<point x="403" y="559" type="curve" smooth="yes"/>
			<point x="403" y="666" type="line" smooth="yes"/>
			<point x="403" y="683"/>
			<point x="398" y="700"/>
			<point x="381" y="700" type="curve" smooth="yes"/>
			<point x="355" y="700"/>
			<point x="330" y="654"/>
			<point x="304" y="654" type="curve" smooth="yes"/>
			<point x="280" y="654"/>
			<point x="250" y="700"/>
			<point x="224" y="700" type="curve" smooth="yes"/>
			<point x="207" y="700"/>
			<point x="202" y="683"/>
			<point x="202" y="666" type="curve" smooth="yes"/>
			<point x="202" y="559" type="line" smooth="yes"/>
			<point x="202" y="539"/>
			<point x="212" y="525"/>
		</contour>
	</outline>
</glyph>
<glyph name="B" format="2">
	<advance width="506"/>
	<unicode hex="0042"/>
	<outline>
		<contour>
			<point x="145" y="373" type="line"/>
			<point x="145" y="565" type="line"/>
			<point x="128" y="520" type="line"/>
			<point x="410" y="520" type="line"/>
			<point x="410" y="466" type="line" smooth="yes"/>
			<point x="410" y="424"/>
			<point x="390" y="377"/>
			<point x="310" y="377" type="curve" smooth="yes"/>
			<point x="133" y="377" type="line"/>
		</contour>
		<contour>
			<point x="144" y="339" type="line"/>
			<point x="144" y="357" type="line"/>
			<point x="131" y="350" type="line"/>
			<point x="303" y="350" type="line" smooth="yes"/>
			<point x="383" y="350"/>
			<point x="441" y="376"/>
			<point x="441" y="478" type="curve" smooth="yes"/>
			<point x="441" y="661" type="line" smooth="yes"/>
			<point x="441" y="688"/>
			<point x="430" y="700"/>
			<point x="401" y="700" type="curve" smooth="yes"/>
			<point x="363" y="700"/>
			<point x="340" y="654"/>
			<point x="318" y="654" type="curve" smooth="yes"/>
			<point x="294" y="654"/>
			<point x="271" y="700"/>
			<point x="246" y="700" type="curve" smooth="yes"/>
			<point x="220" y="700"/>
			<point x="207" y="654"/>
			<point x="184" y="654" type="curve" smooth="yes"/>
			<point x="156" y="654"/>
			<point x="126" y="700"/>
			<point x="86" y="700" type="curve"/>
			<point x="111" y="666" type="line"/>
			<point x="111" y="339" type="line"/>
		</contour>
		<contour>
			<point x="90" y="525" type="curve" smooth="yes"/>
			<point x="225" y="525" type="line"/>
			<point x="140" y="651"/>
			<point x="100" y="700"/>
			<point x="88" y="700" type="curve" smooth="yes"/>
			<point x="61" y="700"/>
			<point x="50" y="684"/>
			<point x="50" y="667" type="curve" smooth="yes"/>
			<point x="50" y="559" type="line" smooth="yes"/>
			<point x="50" y="539"/>
			<point x="60" y="525"/>
		</contour>
		<contour>
			<point x="50" y="33" type="line" smooth="yes"/>
			<point x="50" y="16"/>
			<point x="61" y="0"/>
			<point x="87" y="0" type="curve" smooth="yes"/>
			<point x="87" y="0"/>
			<point x="88" y="0"/>
			<point x="88" y="0" type="curve" smooth="yes"/>
			<point x="91" y="0" type="line" smooth="yes"/>
			<point x="123" y="0"/>
			<point x="157" y="46"/>
			<point x="184" y="46" type="curve" smooth="yes"/>
			<point x="213" y="46"/>
			<point x="226" y="0"/>
			<point x="262" y="0" type="curve" smooth="yes"/>
			<point x="290" y="0"/>
			<point x="313" y="46"/>
			<point x="337" y="46" type="curve" smooth="yes"/>
			<point x="362" y="46"/>
			<point x="385" y="0"/>
			<point x="427" y="0" type="curve" smooth="yes"/>
			<point x="456" y="0"/>
			<point x="467" y="12"/>
			<point x="467" y="39" type="curve" smooth="yes"/>
			<point x="467" y="235" type="line" smooth="yes"/>
			<point x="467" y="342"/>
			<point x="420" y="375"/>
			<point x="339" y="375" type="curve" smooth="yes"/>
			<point x="133" y="375" type="line"/>
			<point x="144" y="348" type="line"/>
			<point x="111" y="348" type="line"/>
			<point x="111" y="175" type="line"/>
			<point x="90" y="175" type="line" smooth="yes"/>
			<point x="60" y="175"/>
			<point x="50" y="161"/>
			<point x="50" y="141" type="curve" smooth="yes"/>
		</contour>
		<contour>
			<point x="145" y="180" type="line"/>
			<point x="145" y="344" type="line"/>
			<point x="342" y="344" type="line" smooth="yes"/>
			<point x="416" y="344"/>
			<point x="436" y="298"/>
			<point x="436" y="240" type="curve" smooth="yes"/>
			<point x="436" y="180" type="line"/>
		</contour>
	</outline>
</glyph>
<glyph name="C" format="2">
	<advance width="452"/>
	<unicode hex="0043"/>
	<outline>
		<contour>
			<point x="77" y="525" type="curve"/>
			<point x="378" y="525" type="line"/>
			<point x="398" y="525"/>
			<point x="408" y="539"/>
			<point x="408" y="559" type="curve" smooth="yes"/>
			<point x="408" y="666" type="line" smooth="yes"/>
			<point x="408" y="683"/>
			<point x="403" y="700"/>
			<point x="386" y="700" type="curve" smooth="yes"/>
			<point x="360" y="700"/>
			<point x="335" y="654"/>
			<point x="309" y="654" type="curve" smooth="yes"/>
			<point x="285" y="654"/>
			<point x="255" y="700"/>
			<point x="229" y="700" type="curve" smooth="yes"/>
			<point x="228" y="700"/>
			<point x="228" y="700"/>
			<point x="227" y="700" type="curve" smooth="yes"/>
			<point x="226" y="700" type="line" smooth="yes"/>
			<point x="200" y="700"/>
			<point x="175" y="654"/>
			<point x="149" y="654" type="curve" smooth="yes"/>
			<point x="125" y="654"/>
			<point x="95" y="700"/>
			<point x="69" y="700" type="curve" smooth="yes"/>
			<point x="52" y="700"/>
			<point x="47" y="683"/>
			<point x="47" y="666" type="curve" smooth="yes"/>
			<point x="47" y="559" type="line"/>
			<point x="47" y="539"/>
			<point x="57" y="525"/>
		</contour>
		<contour>
			<point x="69" y="0" type="curve" smooth="yes"/>
			<point x="95" y="0"/>
			<point x="125" y="46"/>
			<point x="149" y="46" type="curve" smooth="yes"/>
			<point x="175" y="46"/>
			<point x="200" y="0"/>
			<point x="226" y="0" type="curve" smooth="yes"/>
			<point x="227" y="0"/>
			<point x="227" y="0"/>
			<point x="228" y="0" type="curve" smooth="yes"/>
			<point x="229" y="0" type="line" smooth="yes"/>
			<point x="255" y="0"/>
			<point x="285" y="46"/>
			<point x="309" y="46" type="curve" smooth="yes"/>
			<point x="335" y="46"/>
			<point x="360" y="0"/>
			<point x="386" y="0" type="curve" smooth="yes"/>
			<point x="403" y="0"/>
			<point x="408" y="17"/>
			<point x="408" y="34" type="curve" smooth="yes"/>
			<point x="408" y="141" type="line" smooth="yes"/>
			<point x="408" y="161"/>
			<point x="398" y="175"/>
			<point x="378" y="175" type="curve"/>
			<point x="77" y="175" type="line"/>
			<point x="57" y="175"/>
			<point x="47" y="161"/>
			<point x="47" y="141" type="curve" smooth="yes"/>
			<point x="47" y="34" type="line"/>
			<point x="47" y="17"/>
			<point x="52" y="0"/>
		</contour>
		<contour>
			<point x="47" y="47" type="line"/>
			<point x="80" y="47" type="line"/>
			<point x="80" y="607" type="line"/>
			<point x="47" y="607" type="line"/>
		</contour>
		<contour>
			<point x="374" y="66" type="line"/>
			<point x="408" y="66" type="line"/>
			<point x="408" y="328" type="line"/>
			<point x="374" y="328" type="line"/>
		</contour>
		<contour>
			<point x="391" y="311" type="curve" smooth="yes"/>
			<point x="401" y="311"/>
			<point x="408" y="318"/>
			<point x="408" y="328" type="curve" smooth="yes"/>
			<point x="408" y="338"/>
			<point x="401" y="345"/>
			<point x="391" y="345" type="curve" smooth="yes"/>
			<point x="381" y="345"/>
			<point x="374" y="338"/>
			<point x="374" y="328" type="curve" smooth="yes"/>
			<point x="374" y="318"/>
			<point x="381" y="311"/>
		</contour>
		<contour>
			<point x="391" y="461" type="curve" smooth="yes"/>
			<point x="401" y="461"/>
			<point x="408" y="468"/>
			<point x="408" y="478" type="curve" smooth="yes"/>
			<point x="408" y="488"/>
			<point x="401" y="495"/>
			<point x="391" y="495" type="curve" smooth="yes"/>
			<point x="381" y="495"/>
			<point x="374" y="488"/>
			<point x="374" y="478" type="curve" smooth="yes"/>
			<point x="374" y="468"/>
			<point x="381" y="461"/>
		</contour>
		<contour>
			<point x="374" y="476" type="line"/>
			<point x="408" y="476" type="line"/>
			<point x="408" y="598" type="line"/>
			<point x="374" y="598" type="line"/>
		</contour>
	</outline>
</glyph>
<glyph name="D" format="2">
	<advance width="558"/>
	<unicode hex="0044"/>
	<outline>
		<contour>
			<point x="127" y="66" type="line"/>
			<point x="161" y="66" type="line"/>
			<point x="161" y="628" type="line"/>
			<point x="127" y="628" type="line"/>
		</contour>
		<contour>
			<point x="451" y="46" type="line"/>
			<point x="484" y="46" type="line"/>
			<point x="484" y="606" type="line"/>
			<point x="451" y="606" type="line"/>
		</contour>
		<contour>
			<point x="454" y="525" type="line"/>
			<point x="474" y="525"/>
			<point x="484" y="539"/>
			<point x="484" y="559" type="curve"/>
			<point x="484" y="666" type="line" smooth="yes"/>
			<point x="484" y="683"/>
			<point x="479" y="700"/>
			<point x="462" y="700" type="curve" smooth="yes"/>
			<point x="436" y="700"/>
			<point x="408" y="654"/>
			<point x="364" y="654" type="curve" smooth="yes"/>
			<point x="318" y="654"/>
			<point x="291" y="700"/>
			<point x="265" y="700" type="curve" smooth="yes"/>
			<point x="263" y="700"/>
			<point x="263" y="700"/>
			<point x="262" y="700" type="curve" smooth="yes"/>
			<point x="236" y="700"/>
			<point x="209" y="654"/>
			<point x="163" y="654" type="curve" smooth="yes"/>
			<point x="119" y="654"/>
			<point x="91" y="700"/>
			<point x="65" y="700" type="curve" smooth="yes"/>
			<point x="48" y="700"/>
			<point x="43" y="683"/>
			<point x="43" y="666" type="curve" smooth="yes"/>
			<point x="43" y="559" type="line" smooth="yes"/>
			<point x="43" y="539"/>
			<point x="53" y="525"/>
			<point x="73" y="525" type="curve"/>
		</contour>
		<contour>
			<point x="454" y="175" type="curve"/>
			<point x="73" y="175" type="line"/>
			<point x="53" y="175"/>
			<point x="43" y="161"/>
			<point x="43" y="141" type="curve" smooth="yes"/>
			<point x="43" y="34" type="line" smooth="yes"/>
			<point x="43" y="17"/>
			<point x="48" y="0"/>
			<point x="65" y="0" type="curve" smooth="yes"/>
			<point x="91" y="0"/>
			<point x="119" y="46"/>
			<point x="163" y="46" type="curve" smooth="yes"/>
			<point x="209" y="46"/>
			<point x="236" y="0"/>
			<point x="262" y="0" type="curve" smooth="yes"/>
			<point x="263" y="0"/>
			<point x="263" y="0"/>
			<point x="265" y="0" type="curve" smooth="yes"/>
			<point x="291" y="0"/>
			<point x="318" y="46"/>
			<point x="364" y="46" type="curve" smooth="yes"/>
			<point x="408" y="46"/>
			<point x="436" y="0"/>
			<point x="462" y="0" type="curve" smooth="yes"/>
			<point x="479" y="0"/>
			<point x="484" y="17"/>
			<point x="484" y="34" type="curve" smooth="yes"/>
			<point x="484" y="141" type="line"/>
			<point x="484" y="161"/>
			<point x="474" y="175"/>
		</contour>
	</outline>
</glyph>
<glyph name="E" format="2">
	<advance width="500"/>
	<unicode hex="0045"/>
	<outline>
		<contour>
			<point x="127" y="66" type="line"/>
			<point x="161" y="66" type="line"/>
			<point x="161" y="628" type="line"/>
			<point x="127" y="628" type="line"/>
		</contour>
		<contour>
			<point x="151" y="373" type="line"/>
			<point x="151" y="339" type="line"/>
			<point x="390" y="339" type="line"/>
			<point x="390" y="373" type="line"/>
		</contour>
		<contour>
			<point x="75" y="525" type="curve"/>
			<point x="194" y="525"/>
			<point x="306" y="525"/>
			<point x="425" y="525" type="curve"/>
			<point x="446" y="525"/>
			<point x="457" y="539"/>
			<point x="457" y="559" type="curve" smooth="yes"/>
			<point x="457" y="666" type="line" smooth="yes"/>
			<point x="457" y="683"/>
			<point x="451" y="700"/>
			<point x="434" y="700" type="curve" smooth="yes"/>
			<point x="406" y="700"/>
			<point x="379" y="654"/>
			<point x="351" y="654" type="curve" smooth="yes"/>
			<point x="326" y="654"/>
			<point x="285" y="700"/>
			<point x="248" y="700" type="curve" smooth="yes"/>
			<point x="247" y="700"/>
			<point x="247" y="700"/>
			<point x="246" y="700" type="curve" smooth="yes"/>
			<point x="245" y="700" type="line" smooth="yes"/>
			<point x="207" y="700"/>
			<point x="170" y="654"/>
			<point x="143" y="654" type="curve" smooth="yes"/>
			<point x="117" y="654"/>
			<point x="94" y="700"/>
			<point x="66" y="700" type="curve" smooth="yes"/>
			<point x="48" y="700"/>
			<point x="43" y="683"/>
			<point x="43" y="666" type="curve" smooth="yes"/>
			<point x="43" y="559" type="line"/>
			<point x="43" y="539"/>
			<point x="54" y="525"/>
		</contour>
		<contour>
			<point x="425" y="175" type="curve"/>
			<point x="306" y="175"/>
			<point x="194" y="175"/>
			<point x="75" y="175" type="curve"/>
			<point x="54" y="175"/>
			<point x="43" y="161"/>
			<point x="43" y="141" type="curve" smooth="yes"/>
			<point x="43" y="34" type="line" smooth="yes"/>
			<point x="43" y="17"/>
			<point x="49" y="0"/>
			<point x="66" y="0" type="curve" smooth="yes"/>
			<point x="94" y="0"/>
			<point x="114" y="46"/>
			<point x="142" y="46" type="curve" smooth="yes"/>
			<point x="167" y="46"/>
			<point x="208" y="0"/>
			<point x="245" y="0" type="curve" smooth="yes"/>
			<point x="246" y="0"/>
			<point x="246" y="0"/>
			<point x="247" y="0" type="curve" smooth="yes"/>
			<point x="248" y="0" type="line" smooth="yes"/>
			<point x="286" y="0"/>
			<point x="323" y="46"/>
			<point x="350" y="46" type="curve" smooth="yes"/>
			<point x="376" y="46"/>
			<point x="406" y="0"/>
			<point x="434" y="0" type="curve" smooth="yes"/>
			<point x="452" y="0"/>
			<point x="457" y="17"/>
			<point x="457" y="34" type="curve" smooth="yes"/>
			<point x="457" y="141" type="line"/>
			<point x="457" y="161"/>
			<point x="446" y="175"/>
		</contour>
	</outline>
</glyph>
<glyph name="F" format="2">
	<advance width="516"/>
	<unicode hex="0046"/>
	<outline>
		<contour>
			<point x="135" y="66" type="line"/>
			<point x="169" y="66" type="line"/>
			<point x="169" y="628" type="line"/>
			<point x="135" y="628" type="line"/>
		</contour>
		<contour>
			<point x="159" y="373" type="line"/>
			<point x="159" y="339" type="line"/>
			<point x="398" y="339" type="line"/>
			<point x="398" y="373" type="line"/>
		</contour>
		<contour>
			<point x="83" y="525" type="curve"/>
			<point x="202" y="525"/>
			<point x="314" y="525"/>
			<point x="433" y="525" type="curve"/>
			<point x="454" y="525"/>
			<point x="465" y="539"/>
			<point x="465" y="559" type="curve" smooth="yes"/>
			<point x="465" y="666" type="line" smooth="yes"/>
			<point x="465" y="683"/>
			<point x="459" y="700"/>
			<point x="442" y="700" type="curve" smooth="yes"/>
			<point x="414" y="700"/>
			<point x="387" y="654"/>
			<point x="359" y="654" type="curve" smooth="yes"/>
			<point x="334" y="654"/>
			<point x="293" y="700"/>
			<point x="256" y="700" type="curve" smooth="yes"/>
			<point x="255" y="700"/>
			<point x="255" y="700"/>
			<point x="254" y="700" type="curve" smooth="yes"/>
			<point x="253" y="700" type="line" smooth="yes"/>
			<point x="215" y="700"/>
			<point x="178" y="654"/>
			<point x="151" y="654" type="curve" smooth="yes"/>
			<point x="125" y="654"/>
			<point x="102" y="700"/>
			<point x="74" y="700" type="curve" smooth="yes"/>
			<point x="56" y="700"/>
			<point x="51" y="683"/>
			<point x="51" y="666" type="curve" smooth="yes"/>
			<point x="51" y="559" type="line"/>
			<point x="51" y="539"/>
			<point x="62" y="525"/>
		</contour>
		<contour>
			<point x="73" y="0" type="curve" smooth="yes"/>
			<point x="99" y="0"/>
			<point x="129" y="46"/>
			<point x="153" y="46" type="curve" smooth="yes"/>
			<point x="179" y="46"/>
			<point x="204" y="0"/>
			<point x="230" y="0" type="curve" smooth="yes"/>
			<point x="247" y="0"/>
			<point x="252" y="17"/>
			<point x="252" y="34" type="curve" smooth="yes"/>
			<point x="252" y="141" type="line" smooth="yes"/>
			<point x="252" y="161"/>
			<point x="242" y="175"/>
			<point x="222" y="175" type="curve"/>
			<point x="81" y="175" type="line" smooth="yes"/>
			<point x="61" y="175"/>
			<point x="51" y="161"/>
			<point x="51" y="141" type="curve"/>
			<point x="51" y="34" type="line" smooth="yes"/>
			<point x="51" y="17"/>
			<point x="56" y="0"/>
		</contour>
	</outline>
</glyph>
<glyph name="H" format="2">
	<advance width="623"/>
	<unicode hex="0048"/>
	<outline>
		<contour>
			<point x="57" y="0" type="curve" smooth="yes"/>
			<point x="83" y="0"/>
			<point x="113" y="46"/>
			<point x="137" y="46" type="curve" smooth="yes"/>
			<point x="163" y="46"/>
			<point x="188" y="0"/>
			<point x="214" y="0" type="curve" smooth="yes"/>
			<point x="231" y="0"/>
			<point x="236" y="17"/>
			<point x="236" y="34" type="curve" smooth="yes"/>
			<point x="236" y="141" type="line" smooth="yes"/>
			<point x="236" y="161"/>
			<point x="226" y="175"/>
			<point x="206" y="175" type="curve"/>
			<point x="65" y="175" type="line" smooth="yes"/>
			<point x="45" y="175"/>
			<point x="35" y="161"/>
			<point x="35" y="141" type="curve"/>
			<point x="35" y="34" type="line" smooth="yes"/>
			<point x="35" y="17"/>
			<point x="40" y="0"/>
		</contour>
		<contour>
			<point x="119" y="66" type="line"/>
			<point x="153" y="66" type="line"/>
			<point x="153" y="628" type="line"/>
			<point x="119" y="628" type="line"/>
		</contour>
		<contour>
			<point x="65" y="525" type="curve" smooth="yes"/>
			<point x="206" y="525" type="line" smooth="yes"/>
			<point x="226" y="525"/>
			<point x="236" y="539"/>
			<point x="236" y="559" type="curve" smooth="yes"/>
			<point x="236" y="666" type="line" smooth="yes"/>
			<point x="236" y="683"/>
			<point x="231" y="700"/>
			<point x="214" y="700" type="curve" smooth="yes"/>
			<point x="188" y="700"/>
			<point x="163" y="654"/>
			<point x="137" y="654" type="curve" smooth="yes"/>
			<point x="113" y="654"/>
			<point x="83" y="700"/>
			<point x="57" y="700" type="curve" smooth="yes"/>
			<point x="40" y="700"/>
			<point x="35" y="683"/>
			<point x="35" y="666" type="curve" smooth="yes"/>
			<point x="35" y="559" type="line" smooth="yes"/>
			<point x="35" y="539"/>
			<point x="45" y="525"/>
		</contour>
		<contour>
			<point x="416" y="0" type="curve" smooth="yes"/>
			<point x="442" y="0"/>
			<point x="472" y="46"/>
			<point x="496" y="46" type="curve" smooth="yes"/>
			<point x="522" y="46"/>
			<point x="547" y="0"/>
			<point x="573" y="0" type="curve" smooth="yes"/>
			<point x="590" y="0"/>
			<point x="595" y="17"/>
			<point x="595" y="34" type="curve" smooth="yes"/>
			<point x="595" y="141" type="line" smooth="yes"/>
			<point x="595" y="161"/>
			<point x="585" y="175"/>
			<point x="565" y="175" type="curve"/>
			<point x="424" y="175" type="line" smooth="yes"/>
			<point x="404" y="175"/>
			<point x="394" y="161"/>
			<point x="394" y="141" type="curve"/>
			<point x="394" y="34" type="line" smooth="yes"/>
			<point x="394" y="17"/>
			<point x="399" y="0"/>
		</contour>
		<contour>
			<point x="478" y="66" type="line"/>
			<point x="512" y="66" type="line"/>
			<point x="512" y="628" type="line"/>
			<point x="478" y="628" type="line"/>
		</contour>
		<contour>
			<point x="424" y="525" type="curve" smooth="yes"/>
			<point x="565" y="525" type="line" smooth="yes"/>
			<point x="585" y="525"/>
			<point x="595" y="539"/>
			<point x="595" y="559" type="curve" smooth="yes"/>
			<point x="595" y="666" type="line" smooth="yes"/>
			<point x="595" y="683"/>
			<point x="590" y="700"/>
			<point x="573" y="700" type="curve" smooth="yes"/>
			<point x="547" y="700"/>
			<point x="522" y="654"/>
			<point x="496" y="654" type="curve" smooth="yes"/>
			<point x="472" y="654"/>
			<point x="442" y="700"/>
			<point x="416" y="700" type="curve" smooth="yes"/>
			<point x="399" y="700"/>
			<point x="394" y="683"/>
			<point x="394" y="666" type="curve" smooth="yes"/>
			<point x="394" y="559" type="line" smooth="yes"/>
			<point x="394" y="539"/>
			<point x="404" y="525"/>
		</contour>
		<contour>
			<point x="137" y="395" type="line"/>
			<point x="137" y="362" type="line"/>
			<point x="497" y="362" type="line"/>
			<point x="497" y="395" type="line"/>
		</contour>
	</outline>
</glyph>
<glyph name="I" format="2">
	<advance width="287"/>
	<unicode hex="0049"/>
	<outline>
		<contour>
			<point x="65" y="0" type="curve" smooth="yes"/>
			<point x="91" y="0"/>
			<point x="121" y="46"/>
			<point x="145" y="46" type="curve" smooth="yes"/>
			<point x="171" y="46"/>
			<point x="196" y="0"/>
			<point x="222" y="0" type="curve" smooth="yes"/>
			<point x="239" y="0"/>
			<point x="244" y="17"/>
			<point x="244" y="34" type="curve" smooth="yes"/>
			<point x="244" y="141" type="line" smooth="yes"/>
			<point x="244" y="161"/>
			<point x="234" y="175"/>
			<point x="214" y="175" type="curve"/>
			<point x="73" y="175" type="line" smooth="yes"/>
			<point x="53" y="175"/>
			<point x="43" y="161"/>
			<point x="43" y="141" type="curve"/>
			<point x="43" y="34" type="line" smooth="yes"/>
			<point x="43" y="17"/>
			<point x="48" y="0"/>
		</contour>
		<contour>
			<point x="127" y="66" type="line"/>
			<point x="161" y="66" type="line"/>
			<point x="161" y="628" type="line"/>
			<point x="127" y="628" type="line"/>
		</contour>
		<contour>
			<point x="73" y="525" type="curve" smooth="yes"/>
			<point x="214" y="525" type="line" smooth="yes"/>
			<point x="234" y="525"/>
			<point x="244" y="539"/>
			<point x="244" y="559" type="curve" smooth="yes"/>
			<point x="244" y="666" type="line" smooth="yes"/>
			<point x="244" y="683"/>
			<point x="239" y="700"/>
			<point x="222" y="700" type="curve" smooth="yes"/>
			<point x="196" y="700"/>
			<point x="171" y="654"/>
			<point x="145" y="654" type="curve" smooth="yes"/>
			<point x="121" y="654"/>
			<point x="91" y="700"/>
			<point x="65" y="700" type="curve" smooth="yes"/>
			<point x="48" y="700"/>
			<point x="43" y="683"/>
			<point x="43" y="666" type="curve" smooth="yes"/>
			<point x="43" y="559" type="line" smooth="yes"/>
			<point x="43" y="539"/>
			<point x="53" y="525"/>
		</contour>
	</outline>
</glyph>
<glyph name="K" format="2">
	<advance width="608"/>
	<unicode hex="004B"/>
	<outline>
		<contour>
			<point x="65" y="0" type="curve" smooth="yes"/>
			<point x="91" y="0"/>
			<point x="121" y="46"/>
			<point x="145" y="46" type="curve" smooth="yes"/>
			<point x="171" y="46"/>
			<point x="196" y="0"/>
			<point x="222" y="0" type="curve" smooth="yes"/>
			<point x="239" y="0"/>
			<point x="244" y="17"/>
			<point x="244" y="34" type="curve" smooth="yes"/>
			<point x="244" y="141" type="line" smooth="yes"/>
			<point x="244" y="161"/>
			<point x="234" y="175"/>
			<point x="214" y="175" type="curve"/>
			<point x="73" y="175" type="line" smooth="yes"/>
			<point x="53" y="175"/>
			<point x="43" y="161"/>
			<point x="43" y="141" type="curve"/>
			<point x="43" y="34" type="line" smooth="yes"/>
			<point x="43" y="17"/>
			<point x="48" y="0"/>
		</contour>
		<contour>
			<point x="127" y="66" type="line"/>
			<point x="161" y="66" type="line"/>
			<point x="161" y="628" type="line"/>
			<point x="127" y="628" type="line"/>
		</contour>
		<contour>
			<point x="73" y="525" type="curve" smooth="yes"/>
			<point x="214" y="525" type="line" smooth="yes"/>
			<point x="234" y="525"/>
			<point x="244" y="539"/>
			<point x="244" y="559" type="curve" smooth="yes"/>
			<point x="244" y="666" type="line" smooth="yes"/>
			<point x="244" y="683"/>
			<point x="239" y="700"/>
			<point x="222" y="700" type="curve" smooth="yes"/>
			<point x="196" y="700"/>
			<point x="171" y="654"/>
			<point x="145" y="654" type="curve" smooth="yes"/>
			<point x="121" y="654"/>
			<point x="91" y="700"/>
			<point x="65" y="700" type="curve" smooth="yes"/>
			<point x="48" y="700"/>
			<point x="43" y="683"/>
			<point x="43" y="666" type="curve" smooth="yes"/>
			<point x="43" y="559" type="line" smooth="yes"/>
			<point x="43" y="539"/>
			<point x="53" y="525"/>
		</contour>
		<contour>
			<point x="281" y="416" type="line"/>
			<point x="254" y="397" type="line"/>
			<point x="443" y="174" type="line"/>
			<point x="487" y="174" type="line"/>
		</contour>
		<contour>
			<point x="386" y="0" type="curve" smooth="yes"/>
			<point x="412" y="0"/>
			<point x="442" y="46"/>
			<point x="466" y="46" type="curve" smooth="yes"/>
			<point x="492" y="46"/>
			<point x="517" y="0"/>
			<point x="543" y="0" type="curve" smooth="yes"/>
			<point x="560" y="0"/>
			<point x="565" y="17"/>
			<point x="565" y="34" type="curve" smooth="yes"/>
			<point x="565" y="141" type="line" smooth="yes"/>
			<point x="565" y="161"/>
			<point x="555" y="175"/>
			<point x="535" y="175" type="curve" smooth="yes"/>
			<point x="394" y="175" type="line" smooth="yes"/>
			<point x="374" y="175"/>
			<point x="364" y="161"/>
			<point x="364" y="141" type="curve" smooth="yes"/>
			<point x="364" y="34" type="line" smooth="yes"/>
			<point x="364" y="17"/>
			<point x="369" y="0"/>
		</contour>
		<contour>
			<point x="394" y="525" type="curve" smooth="yes"/>
			<point x="535" y="525" type="line" smooth="yes"/>
			<point x="555" y="525"/>
			<point x="565" y="539"/>
			<point x="565" y="559" type="curve" smooth="yes"/>
			<point x="565" y="666" type="line" smooth="yes"/>
			<point x="565" y="683"/>
			<point x="560" y="700"/>
			<point x="543" y="700" type="curve" smooth="yes"/>
			<point x="517" y="700"/>
			<point x="492" y="654"/>
			<point x="466" y="654" type="curve" smooth="yes"/>
			<point x="442" y="654"/>
			<point x="412" y="700"/>
			<point x="386" y="700" type="curve" smooth="yes"/>
			<point x="369" y="700"/>
			<point x="364" y="683"/>
			<point x="364" y="666" type="curve" smooth="yes"/>
			<point x="364" y="559" type="line" smooth="yes"/>
			<point x="364" y="539"/>
			<point x="374" y="525"/>
		</contour>
		<contour>
			<point x="148" y="297" type="line"/>
			<point x="494" y="526" type="line"/>
			<point x="434" y="526" type="line"/>
			<point x="148" y="338" type="line"/>
		</contour>
	</outline>
</glyph>
<glyph name="L" format="2">
	<advance width="516"/>
	<unicode hex="004C"/>
	<outline>
		<contour>
			<point x="135" y="634" type="line"/>
			<point x="135" y="72" type="line"/>
			<point x="169" y="72" type="line"/>
			<point x="169" y="634" type="line"/>
		</contour>
		<contour>
			<point x="83" y="175" type="curve"/>
			<point x="62" y="175"/>
			<point x="51" y="161"/>
			<point x="51" y="141" type="curve"/>
			<point x="51" y="34" type="line" smooth="yes"/>
			<point x="51" y="17"/>
			<point x="56" y="0"/>
			<point x="74" y="0" type="curve" smooth="yes"/>
			<point x="102" y="0"/>
			<point x="125" y="46"/>
			<point x="151" y="46" type="curve" smooth="yes"/>
			<point x="178" y="46"/>
			<point x="215" y="0"/>
			<point x="253" y="0" type="curve" smooth="yes"/>
			<point x="254" y="0" type="line" smooth="yes"/>
			<point x="255" y="0"/>
			<point x="255" y="0"/>
			<point x="256" y="0" type="curve" smooth="yes"/>
			<point x="293" y="0"/>
			<point x="334" y="46"/>
			<point x="359" y="46" type="curve" smooth="yes"/>
			<point x="387" y="46"/>
			<point x="414" y="0"/>
			<point x="442" y="0" type="curve" smooth="yes"/>
			<point x="459" y="0"/>
			<point x="465" y="17"/>
			<point x="465" y="34" type="curve" smooth="yes"/>
			<point x="465" y="141" type="line" smooth="yes"/>
			<point x="465" y="161"/>
			<point x="454" y="175"/>
			<point x="433" y="175" type="curve"/>
			<point x="314" y="175"/>
			<point x="202" y="175"/>
		</contour>
		<contour>
			<point x="73" y="700" type="curve" smooth="yes"/>
			<point x="56" y="700"/>
			<point x="51" y="683"/>
			<point x="51" y="666" type="curve" smooth="yes"/>
			<point x="51" y="559" type="line"/>
			<point x="51" y="539"/>
			<point x="61" y="525"/>
			<point x="81" y="525" type="curve" smooth="yes"/>
			<point x="222" y="525" type="line"/>
			<point x="242" y="525"/>
			<point x="252" y="539"/>
			<point x="252" y="559" type="curve" smooth="yes"/>
			<point x="252" y="666" type="line" smooth="yes"/>
			<point x="252" y="683"/>
			<point x="247" y="700"/>
			<point x="230" y="700" type="curve" smooth="yes"/>
			<point x="204" y="700"/>
			<point x="179" y="654"/>
			<point x="153" y="654" type="curve" smooth="yes"/>
			<point x="129" y="654"/>
			<point x="99" y="700"/>
		</contour>
	</outline>
</glyph>
<glyph name="N" format="2">
	<advance width="593"/>
	<unicode hex="004E"/>
	<outline>
		<contour>
			<point x="428" y="161" type="line"/>
			<point x="469" y="161" type="line"/>
			<point x="118" y="658" type="line"/>
			<point x="77" y="658" type="line"/>
		</contour>
		<contour>
			<point x="58" y="0" type="curve" smooth="yes"/>
			<point x="84" y="0"/>
			<point x="114" y="46"/>
			<point x="138" y="46" type="curve" smooth="yes"/>
			<point x="164" y="46"/>
			<point x="189" y="0"/>
			<point x="215" y="0" type="curve" smooth="yes"/>
			<point x="232" y="0"/>
			<point x="237" y="17"/>
			<point x="237" y="34" type="curve" smooth="yes"/>
			<point x="237" y="141" type="line" smooth="yes"/>
			<point x="237" y="161"/>
			<point x="227" y="175"/>
			<point x="207" y="175" type="curve" smooth="yes"/>
			<point x="66" y="175" type="line" smooth="yes"/>
			<point x="46" y="175"/>
			<point x="36" y="161"/>
			<point x="36" y="141" type="curve" smooth="yes"/>
			<point x="36" y="34" type="line" smooth="yes"/>
			<point x="36" y="17"/>
			<point x="41" y="0"/>
		</contour>
		<contour>
			<point x="120" y="56" type="line"/>
			<point x="154" y="56" type="line"/>
			<point x="154" y="598" type="line"/>
			<point x="120" y="598" type="line"/>
		</contour>
		<contour>
			<point x="378" y="0" type="curve" smooth="yes"/>
			<point x="404" y="0"/>
			<point x="434" y="46"/>
			<point x="458" y="46" type="curve" smooth="yes"/>
			<point x="484" y="46"/>
			<point x="509" y="0"/>
			<point x="535" y="0" type="curve" smooth="yes"/>
			<point x="552" y="0"/>
			<point x="557" y="17"/>
			<point x="557" y="34" type="curve" smooth="yes"/>
			<point x="557" y="141" type="line" smooth="yes"/>
			<point x="557" y="161"/>
			<point x="547" y="175"/>
			<point x="527" y="175" type="curve"/>
			<point x="386" y="175" type="line" smooth="yes"/>
			<point x="366" y="175"/>
			<point x="356" y="161"/>
			<point x="356" y="141" type="curve"/>
			<point x="356" y="34" type="line" smooth="yes"/>
			<point x="356" y="17"/>
			<point x="361" y="0"/>
		</contour>
		<contour>
			<point x="66" y="525" type="curve" smooth="yes"/>
			<point x="139" y="525" type="line"/>
			<point x="156" y="575" type="line"/>
			<point x="196" y="525" type="line"/>
			<point x="212" y="525" type="line" smooth="yes"/>
			<point x="212" y="525"/>
			<point x="108" y="672"/>
			<point x="106" y="674" type="curve" smooth="yes"/>
			<point x="90" y="693"/>
			<point x="76" y="700"/>
			<point x="64" y="700" type="curve" smooth="yes"/>
			<point x="47" y="700"/>
			<point x="36" y="684"/>
			<point x="36" y="667" type="curve" smooth="yes"/>
			<point x="36" y="559" type="line" smooth="yes"/>
			<point x="36" y="539"/>
			<point x="46" y="525"/>
		</contour>
		<contour>
			<point x="440" y="66" type="line"/>
			<point x="474" y="66" type="line"/>
			<point x="474" y="628" type="line"/>
			<point x="440" y="628" type="line"/>
		</contour>
		<contour>
			<point x="386" y="525" type="curve" smooth="yes"/>
			<point x="527" y="525" type="line" smooth="yes"/>
			<point x="547" y="525"/>
			<point x="557" y="539"/>
			<point x="557" y="559" type="curve" smooth="yes"/>
			<point x="557" y="666" type="line" smooth="yes"/>
			<point x="557" y="683"/>
			<point x="552" y="700"/>
			<point x="535" y="700" type="curve" smooth="yes"/>
			<point x="509" y="700"/>
			<point x="484" y="654"/>
			<point x="458" y="654" type="curve" smooth="yes"/>
			<point x="434" y="654"/>
			<point x="404" y="700"/>
			<point x="378" y="700" type="curve" smooth="yes"/>
			<point x="361" y="700"/>
			<point x="356" y="683"/>
			<point x="356" y="666" type="curve" smooth="yes"/>
			<point x="356" y="559" type="line" smooth="yes"/>
			<point x="356" y="539"/>
			<point x="366" y="525"/>
		</contour>
	</outline>
</glyph>
<glyph name="P" format="2">
	<advance width="496"/>
	<unicode hex="0050"/>
	<outline>
		<contour>
			<point x="65" y="0" type="curve" smooth="yes"/>
			<point x="91" y="0"/>
			<point x="121" y="46"/>
			<point x="145" y="46" type="curve" smooth="yes"/>
			<point x="171" y="46"/>
			<point x="196" y="0"/>
			<point x="222" y="0" type="curve" smooth="yes"/>
			<point x="239" y="0"/>
			<point x="244" y="17"/>
			<point x="244" y="34" type="curve" smooth="yes"/>
			<point x="244" y="141" type="line" smooth="yes"/>
			<point x="244" y="161"/>
			<point x="234" y="175"/>
			<point x="214" y="175" type="curve" smooth="yes"/>
			<point x="73" y="175" type="line" smooth="yes"/>
			<point x="53" y="175"/>
			<point x="43" y="161"/>
			<point x="43" y="141" type="curve" smooth="yes"/>
			<point x="43" y="34" type="line" smooth="yes"/>
			<point x="43" y="17"/>
			<point x="48" y="0"/>
		</contour>
		<contour>
			<point x="458" y="462" type="curve" smooth="yes"/>
			<point x="458" y="559" type="line"/>
			<point x="458" y="666" type="line" smooth="yes"/>
			<point x="458" y="683"/>
			<point x="452" y="700"/>
			<point x="435" y="700" type="curve" smooth="yes"/>
			<point x="407" y="700"/>
			<point x="379" y="654"/>
			<point x="351" y="654" type="curve" smooth="yes"/>
			<point x="326" y="654"/>
			<point x="285" y="700"/>
			<point x="248" y="700" type="curve" smooth="yes"/>
			<point x="247" y="700"/>
			<point x="247" y="700"/>
			<point x="246" y="700" type="curve" smooth="yes"/>
			<point x="245" y="700" type="line" smooth="yes"/>
			<point x="207" y="700"/>
			<point x="170" y="654"/>
			<point x="143" y="654" type="curve" smooth="yes"/>
			<point x="117" y="654"/>
			<point x="94" y="700"/>
			<point x="66" y="700" type="curve" smooth="yes"/>
			<point x="48" y="700"/>
			<point x="43" y="683"/>
			<point x="43" y="666" type="curve" smooth="yes"/>
			<point x="43" y="559" type="line"/>
			<point x="43" y="539"/>
			<point x="54" y="525"/>
			<point x="75" y="525" type="curve" smooth="yes"/>
			<point x="456" y="525" type="line"/>
			<point x="425" y="570" type="line"/>
			<point x="425" y="436" type="line" smooth="yes"/>
			<point x="425" y="387"/>
			<point x="402" y="332"/>
			<point x="315" y="332" type="curve" smooth="yes"/>
			<point x="149" y="332" type="line"/>
			<point x="161" y="328" type="line"/>
			<point x="161" y="542" type="line"/>
			<point x="127" y="542" type="line"/>
			<point x="127" y="84" type="line"/>
			<point x="161" y="84" type="line"/>
			<point x="161" y="312" type="line"/>
			<point x="149" y="299" type="line"/>
			<point x="198" y="299" type="line"/>
			<point x="326" y="299" type="line" smooth="yes"/>
			<point x="414" y="299"/>
			<point x="458" y="348"/>
		</contour>
	</outline>
</glyph>
<glyph name="Q" format="2">
	<advance width="508"/>
	<unicode hex="0051"/>
	<outline>
		<contour>
			<point x="104" y="525" type="curve"/>
			<point x="405" y="525" type="line"/>
			<point x="425" y="525"/>
			<point x="435" y="539"/>
			<point x="435" y="559" type="curve" smooth="yes"/>
			<point x="435" y="666" type="line" smooth="yes"/>
			<point x="435" y="683"/>
			<point x="430" y="700"/>
			<point x="413" y="700" type="curve" smooth="yes"/>
			<point x="387" y="700"/>
			<point x="362" y="654"/>
			<point x="336" y="654" type="curve" smooth="yes"/>
			<point x="312" y="654"/>
			<point x="282" y="700"/>
			<point x="256" y="700" type="curve" smooth="yes"/>
			<point x="255" y="700"/>
			<point x="255" y="700"/>
			<point x="254" y="700" type="curve" smooth="yes"/>
			<point x="253" y="700" type="line" smooth="yes"/>
			<point x="227" y="700"/>
			<point x="202" y="654"/>
			<point x="176" y="654" type="curve" smooth="yes"/>
			<point x="152" y="654"/>
			<point x="122" y="700"/>
			<point x="96" y="700" type="curve" smooth="yes"/>
			<point x="79" y="700"/>
			<point x="74" y="683"/>
			<point x="74" y="666" type="curve" smooth="yes"/>
			<point x="74" y="559" type="line"/>
			<point x="74" y="539"/>
			<point x="84" y="525"/>
		</contour>
		<contour>
			<point x="96" y="0" type="curve" smooth="yes"/>
			<point x="122" y="0"/>
			<point x="152" y="46"/>
			<point x="176" y="46" type="curve" smooth="yes"/>
			<point x="202" y="46"/>
			<point x="227" y="0"/>
			<point x="253" y="0" type="curve" smooth="yes"/>
			<point x="254" y="0"/>
			<point x="254" y="0"/>
			<point x="255" y="0" type="curve" smooth="yes"/>
			<point x="256" y="0" type="line" smooth="yes"/>
			<point x="282" y="0"/>
			<point x="312" y="46"/>
			<point x="336" y="46" type="curve" smooth="yes"/>
			<point x="362" y="46"/>
			<point x="387" y="0"/>
			<point x="413" y="0" type="curve" smooth="yes"/>
			<point x="430" y="0"/>
			<point x="435" y="17"/>
			<point x="435" y="34" type="curve" smooth="yes"/>
			<point x="435" y="141" type="line" smooth="yes"/>
			<point x="435" y="161"/>
			<point x="425" y="175"/>
			<point x="405" y="175" type="curve"/>
			<point x="104" y="175" type="line"/>
			<point x="84" y="175"/>
			<point x="74" y="161"/>
			<point x="74" y="141" type="curve" smooth="yes"/>
			<point x="74" y="34" type="line"/>
			<point x="74" y="17"/>
			<point x="79" y="0"/>
		</contour>
		<contour>
			<point x="74" y="47" type="line"/>
			<point x="107" y="47" type="line"/>
			<point x="107" y="607" type="line"/>
			<point x="74" y="607" type="line"/>
		</contour>
		<contour>
			<point x="402" y="47" type="line"/>
			<point x="435" y="47" type="line"/>
			<point x="435" y="607" type="line"/>
			<point x="402" y="607" type="line"/>
		</contour>
		<contour>
			<point x="185" y="-212" type="curve" smooth="yes"/>
			<point x="211" y="-212"/>
			<point x="237" y="-166"/>
			<point x="259" y="-166" type="curve" smooth="yes"/>
			<point x="283" y="-166"/>
			<point x="303" y="-212"/>
			<point x="329" y="-212" type="curve" smooth="yes"/>
			<point x="346" y="-212"/>
			<point x="351" y="-195"/>
			<point x="351" y="-178" type="curve" smooth="yes"/>
			<point x="351" y="-94" type="line" smooth="yes"/>
			<point x="351" y="-74"/>
			<point x="341" y="-60"/>
			<point x="321" y="-60" type="curve"/>
			<point x="193" y="-60" type="line" smooth="yes"/>
			<point x="173" y="-60"/>
			<point x="163" y="-74"/>
			<point x="163" y="-94" type="curve"/>
			<point x="163" y="-178" type="line" smooth="yes"/>
			<point x="163" y="-195"/>
			<point x="168" y="-212"/>
		</contour>
	</outline>
</glyph>
<glyph name="R" format="2">
	<advance width="544"/>
	<unicode hex="0052"/>
	<outline>
		<contour>
			<point x="140" y="328" type="line"/>
			<point x="136" y="565" type="line"/>
			<point x="125" y="520" type="line"/>
			<point x="439" y="520" type="line"/>
			<point x="439" y="436" type="line" smooth="yes"/>
			<point x="439" y="378"/>
			<point x="420" y="332"/>
			<point x="338" y="332" type="curve" smooth="yes"/>
			<point x="130" y="332" type="line"/>
		</contour>
		<contour>
			<point x="141" y="84" type="line"/>
			<point x="141" y="312" type="line"/>
			<point x="130" y="299" type="line"/>
			<point x="179" y="299" type="line" smooth="yes"/>
			<point x="245" y="299"/>
			<point x="234" y="299"/>
			<point x="330" y="299" type="curve"/>
			<point x="318" y="324" type="line"/>
			<point x="371" y="165" type="line"/>
			<point x="405" y="168" type="line"/>
			<point x="350" y="326" type="line"/>
			<point x="341" y="299" type="line"/>
			<point x="423" y="299"/>
			<point x="472" y="334"/>
			<point x="472" y="451" type="curve" smooth="yes"/>
			<point x="472" y="661" type="line" smooth="yes"/>
			<point x="472" y="688"/>
			<point x="461" y="700"/>
			<point x="438" y="700" type="curve" smooth="yes"/>
			<point x="396" y="700"/>
			<point x="373" y="654"/>
			<point x="345" y="654" type="curve" smooth="yes"/>
			<point x="321" y="654"/>
			<point x="298" y="700"/>
			<point x="270" y="700" type="curve" smooth="yes"/>
			<point x="234" y="700"/>
			<point x="221" y="654"/>
			<point x="187" y="654" type="curve" smooth="yes"/>
			<point x="159" y="654"/>
			<point x="123" y="700"/>
			<point x="83" y="700" type="curve"/>
			<point x="108" y="666" type="line"/>
			<point x="108" y="84" type="line"/>
		</contour>
		<contour>
			<point x="69" y="0" type="curve" smooth="yes"/>
			<point x="95" y="0"/>
			<point x="125" y="46"/>
			<point x="149" y="46" type="curve" smooth="yes"/>
			<point x="175" y="46"/>
			<point x="200" y="0"/>
			<point x="226" y="0" type="curve" smooth="yes"/>
			<point x="243" y="0"/>
			<point x="248" y="17"/>
			<point x="248" y="34" type="curve" smooth="yes"/>
			<point x="248" y="141" type="line" smooth="yes"/>
			<point x="248" y="161"/>
			<point x="238" y="175"/>
			<point x="218" y="175" type="curve" smooth="yes"/>
			<point x="77" y="175" type="line" smooth="yes"/>
			<point x="57" y="175"/>
			<point x="47" y="161"/>
			<point x="47" y="141" type="curve" smooth="yes"/>
			<point x="47" y="34" type="line" smooth="yes"/>
			<point x="47" y="17"/>
			<point x="52" y="0"/>
		</contour>
		<contour>
			<point x="321" y="0" type="curve" smooth="yes"/>
			<point x="347" y="0"/>
			<point x="377" y="46"/>
			<point x="401" y="46" type="curve" smooth="yes"/>
			<point x="427" y="46"/>
			<point x="452" y="0"/>
			<point x="478" y="0" type="curve" smooth="yes"/>
			<point x="495" y="0"/>
			<point x="500" y="17"/>
			<point x="500" y="34" type="curve" smooth="yes"/>
			<point x="500" y="141" type="line" smooth="yes"/>
			<point x="500" y="161"/>
			<point x="490" y="175"/>
			<point x="470" y="175" type="curve" smooth="yes"/>
			<point x="329" y="175" type="line" smooth="yes"/>
			<point x="309" y="175"/>
			<point x="299" y="161"/>
			<point x="299" y="141" type="curve" smooth="yes"/>
			<point x="299" y="34" type="line" smooth="yes"/>
			<point x="299" y="17"/>
			<point x="304" y="0"/>
		</contour>
		<contour>
			<point x="87" y="525" type="curve" smooth="yes"/>
			<point x="217" y="525" type="line"/>
			<point x="233" y="525" type="line" smooth="yes"/>
			<point x="233" y="525"/>
			<point x="130" y="672"/>
			<point x="128" y="674" type="curve" smooth="yes"/>
			<point x="106" y="693"/>
			<point x="94" y="700"/>
			<point x="85" y="700" type="curve" smooth="yes"/>
			<point x="58" y="700"/>
			<point x="47" y="684"/>
			<point x="47" y="667" type="curve" smooth="yes"/>
			<point x="47" y="559" type="line" smooth="yes"/>
			<point x="47" y="539"/>
			<point x="57" y="525"/>
		</contour>
	</outline>
</glyph>
<glyph name="S" format="2">
	<advance width="520"/>
	<unicode hex="0053"/>
	<outline>
		<contour>
			<point x="385" y="525" type="line"/>
			<point x="406" y="525" type="line" smooth="yes"/>
			<point x="436" y="525"/>
			<point x="446" y="539"/>
			<point x="446" y="559" type="curve" smooth="yes"/>
			<point x="446" y="667" type="line" smooth="yes"/>
			<point x="446" y="684"/>
			<point x="436" y="699"/>
			<point x="410" y="700" type="curve" smooth="yes"/>
			<point x="409" y="700"/>
			<point x="409" y="700"/>
			<point x="407" y="700" type="curve" smooth="yes"/>
			<point x="368" y="698"/>
			<point x="339" y="654"/>
			<point x="312" y="654" type="curve" smooth="yes"/>
			<point x="289" y="654"/>
			<point x="276" y="700"/>
			<point x="250" y="700" type="curve" smooth="yes"/>
			<point x="225" y="700"/>
			<point x="202" y="654"/>
			<point x="178" y="654" type="curve" smooth="yes"/>
			<point x="156" y="654"/>
			<point x="133" y="700"/>
			<point x="95" y="700" type="curve" smooth="yes"/>
			<point x="66" y="700"/>
			<point x="55" y="688"/>
			<point x="55" y="661" type="curve" smooth="yes"/>
			<point x="55" y="525" type="line"/>
		</contour>
		<contour>
			<point x="472" y="173" type="line"/>
			<point x="116" y="175" type="line"/>
			<point x="95" y="175" type="line" smooth="yes"/>
			<point x="65" y="175"/>
			<point x="55" y="161"/>
			<point x="55" y="141" type="curve" smooth="yes"/>
			<point x="55" y="33" type="line" smooth="yes"/>
			<point x="55" y="16"/>
			<point x="66" y="0"/>
			<point x="92" y="0" type="curve" smooth="yes"/>
			<point x="92" y="0"/>
			<point x="93" y="0"/>
			<point x="93" y="0" type="curve" smooth="yes"/>
			<point x="96" y="0" type="line" smooth="yes"/>
			<point x="128" y="0"/>
			<point x="162" y="46"/>
			<point x="189" y="46" type="curve" smooth="yes"/>
			<point x="218" y="46"/>
			<point x="231" y="0"/>
			<point x="267" y="0" type="curve" smooth="yes"/>
			<point x="295" y="0"/>
			<point x="318" y="46"/>
			<point x="342" y="46" type="curve" smooth="yes"/>
			<point x="367" y="46"/>
			<point x="390" y="0"/>
			<point x="432" y="0" type="curve" smooth="yes"/>
			<point x="461" y="0"/>
			<point x="472" y="12"/>
			<point x="472" y="39" type="curve" smooth="yes"/>
		</contour>
		<contour>
			<point x="303" y="367" type="line"/>
			<point x="186" y="367" type="line" smooth="yes"/>
			<point x="106" y="367"/>
			<point x="86" y="414"/>
			<point x="86" y="456" type="curve"/>
			<point x="86" y="525" type="line"/>
			<point x="55" y="525" type="line"/>
			<point x="55" y="468" type="line" smooth="yes"/>
			<point x="55" y="366"/>
			<point x="113" y="340"/>
			<point x="193" y="340" type="curve" smooth="yes"/>
			<point x="303" y="340" type="line"/>
		</contour>
		<contour>
			<point x="224" y="340" type="line"/>
			<point x="341" y="340" type="line" smooth="yes"/>
			<point x="421" y="340"/>
			<point x="441" y="293"/>
			<point x="441" y="251" type="curve"/>
			<point x="441" y="142" type="line"/>
			<point x="472" y="142" type="line"/>
			<point x="472" y="239" type="line" smooth="yes"/>
			<point x="472" y="341"/>
			<point x="414" y="367"/>
			<point x="334" y="367" type="curve" smooth="yes"/>
			<point x="224" y="367" type="line"/>
		</contour>
	</outline>
</glyph>
<glyph name="T" format="2">
	<advance width="443"/>
	<unicode hex="0054"/>
	<outline>
		<contour>
			<point x="149" y="0" type="curve" smooth="yes"/>
			<point x="175" y="0"/>
			<point x="205" y="46"/>
			<point x="229" y="46" type="curve" smooth="yes"/>
			<point x="255" y="46"/>
			<point x="280" y="0"/>
			<point x="306" y="0" type="curve" smooth="yes"/>
			<point x="323" y="0"/>
			<point x="328" y="17"/>
			<point x="328" y="34" type="curve" smooth="yes"/>
			<point x="328" y="141" type="line" smooth="yes"/>
			<point x="328" y="161"/>
			<point x="318" y="175"/>
			<point x="298" y="175" type="curve"/>
			<point x="157" y="175" type="line" smooth="yes"/>
			<point x="137" y="175"/>
			<point x="127" y="161"/>
			<point x="127" y="141" type="curve"/>
			<point x="127" y="34" type="line" smooth="yes"/>
			<point x="127" y="17"/>
			<point x="132" y="0"/>
		</contour>
		<contour>
			<point x="211" y="66" type="line"/>
			<point x="245" y="66" type="line"/>
			<point x="245" y="628" type="line"/>
			<point x="211" y="628" type="line"/>
		</contour>
		<contour>
			<point x="63" y="525" type="curve"/>
			<point x="380" y="525" type="line"/>
			<point x="401" y="525"/>
			<point x="412" y="539"/>
			<point x="412" y="559" type="curve" smooth="yes"/>
			<point x="412" y="666" type="line" smooth="yes"/>
			<point x="412" y="683"/>
			<point x="406" y="700"/>
			<point x="389" y="700" type="curve" smooth="yes"/>
			<point x="361" y="700"/>
			<point x="335" y="654"/>
			<point x="307" y="654" type="curve" smooth="yes"/>
			<point x="282" y="654"/>
			<point x="250" y="700"/>
			<point x="223" y="700" type="curve" smooth="yes"/>
			<point x="222" y="700"/>
			<point x="222" y="700"/>
			<point x="221" y="700" type="curve" smooth="yes"/>
			<point x="220" y="700" type="line" smooth="yes"/>
			<point x="192" y="700"/>
			<point x="166" y="654"/>
			<point x="139" y="654" type="curve" smooth="yes"/>
			<point x="113" y="654"/>
			<point x="82" y="700"/>
			<point x="54" y="700" type="curve" smooth="yes"/>
			<point x="36" y="700"/>
			<point x="31" y="683"/>
			<point x="31" y="666" type="curve" smooth="yes"/>
			<point x="31" y="559" type="line"/>
			<point x="31" y="539"/>
			<point x="42" y="525"/>
		</contour>
	</outline>
</glyph>
<glyph name="U" format="2">
	<advance width="644"/>
	<unicode hex="0055"/>
	<outline>
		<contour>
			<point x="115" y="634" type="line"/>
			<point x="115" y="72" type="line"/>
			<point x="149" y="72" type="line"/>
			<point x="149" y="634" type="line"/>
		</contour>
		<contour>
			<point x="147" y="175" type="curve"/>
			<point x="126" y="175"/>
			<point x="115" y="161"/>
			<point x="115" y="141" type="curve"/>
			<point x="115" y="34" type="line" smooth="yes"/>
			<point x="115" y="17"/>
			<point x="120" y="0"/>
			<point x="138" y="0" type="curve" smooth="yes"/>
			<point x="166" y="0"/>
			<point x="189" y="46"/>
			<point x="215" y="46" type="curve" smooth="yes"/>
			<point x="242" y="46"/>
			<point x="279" y="0"/>
			<point x="317" y="0" type="curve" smooth="yes"/>
			<point x="318" y="0" type="line" smooth="yes"/>
			<point x="319" y="0"/>
			<point x="319" y="0"/>
			<point x="320" y="0" type="curve" smooth="yes"/>
			<point x="357" y="0"/>
			<point x="398" y="46"/>
			<point x="423" y="46" type="curve" smooth="yes"/>
			<point x="451" y="46"/>
			<point x="478" y="0"/>
			<point x="506" y="0" type="curve" smooth="yes"/>
			<point x="523" y="0"/>
			<point x="529" y="17"/>
			<point x="529" y="34" type="curve" smooth="yes"/>
			<point x="529" y="141" type="line" smooth="yes"/>
			<point x="529" y="161"/>
			<point x="518" y="175"/>
			<point x="497" y="175" type="curve"/>
			<point x="378" y="175"/>
			<point x="266" y="175"/>
		</contour>
		<contour>
			<point x="53" y="700" type="curve" smooth="yes"/>
			<point x="36" y="700"/>
			<point x="31" y="683"/>
			<point x="31" y="666" type="curve" smooth="yes"/>
			<point x="31" y="559" type="line"/>
			<point x="31" y="539"/>
			<point x="41" y="525"/>
			<point x="61" y="525" type="curve" smooth="yes"/>
			<point x="202" y="525" type="line"/>
			<point x="222" y="525"/>
			<point x="232" y="539"/>
			<point x="232" y="559" type="curve" smooth="yes"/>
			<point x="232" y="666" type="line" smooth="yes"/>
			<point x="232" y="683"/>
			<point x="227" y="700"/>
			<point x="210" y="700" type="curve" smooth="yes"/>
			<point x="184" y="700"/>
			<point x="159" y="654"/>
			<point x="133" y="654" type="curve" smooth="yes"/>
			<point x="109" y="654"/>
			<point x="79" y="700"/>
		</contour>
		<contour>
			<point x="529" y="634" type="line"/>
			<point x="495" y="634" type="line"/>
			<point x="495" y="72" type="line"/>
			<point x="529" y="72" type="line"/>
		</contour>
		<contour>
			<point x="497" y="175" type="curve"/>
			<point x="378" y="175"/>
			<point x="266" y="175"/>
			<point x="147" y="175" type="curve"/>
			<point x="126" y="175"/>
			<point x="115" y="161"/>
			<point x="115" y="141" type="curve" smooth="yes"/>
			<point x="115" y="34" type="line" smooth="yes"/>
			<point x="115" y="17"/>
			<point x="121" y="0"/>
			<point x="138" y="0" type="curve" smooth="yes"/>
			<point x="166" y="0"/>
			<point x="193" y="46"/>
			<point x="221" y="46" type="curve" smooth="yes"/>
			<point x="246" y="46"/>
			<point x="287" y="0"/>
			<point x="324" y="0" type="curve" smooth="yes"/>
			<point x="325" y="0"/>
			<point x="325" y="0"/>
			<point x="326" y="0" type="curve" smooth="yes"/>
			<point x="327" y="0" type="line" smooth="yes"/>
			<point x="365" y="0"/>
			<point x="402" y="46"/>
			<point x="429" y="46" type="curve" smooth="yes"/>
			<point x="455" y="46"/>
			<point x="478" y="0"/>
			<point x="506" y="0" type="curve" smooth="yes"/>
			<point x="524" y="0"/>
			<point x="529" y="17"/>
			<point x="529" y="34" type="curve" smooth="yes"/>
			<point x="529" y="141" type="line"/>
			<point x="529" y="161"/>
			<point x="518" y="175"/>
		</contour>
		<contour>
			<point x="591" y="700" type="curve" smooth="yes"/>
			<point x="565" y="700"/>
			<point x="535" y="654"/>
			<point x="511" y="654" type="curve" smooth="yes"/>
			<point x="485" y="654"/>
			<point x="460" y="700"/>
			<point x="434" y="700" type="curve" smooth="yes"/>
			<point x="417" y="700"/>
			<point x="412" y="683"/>
			<point x="412" y="666" type="curve" smooth="yes"/>
			<point x="412" y="559" type="line" smooth="yes"/>
			<point x="412" y="539"/>
			<point x="422" y="525"/>
			<point x="442" y="525" type="curve"/>
			<point x="583" y="525" type="line"/>
			<point x="603" y="525"/>
			<point x="613" y="539"/>
			<point x="613" y="559" type="curve"/>
			<point x="613" y="666" type="line" smooth="yes"/>
			<point x="613" y="683"/>
			<point x="608" y="700"/>
		</contour>
	</outline>
</glyph>
<glyph name="V" format="2">
	<advance width="607"/>
	<unicode hex="0056"/>
	<outline>
		<contour>
			<point x="288" y="120" type="line"/>
			<point x="320" y="120" type="line"/>
			<point x="492" y="555" type="line"/>
			<point x="455" y="555" type="line"/>
			<point x="289" y="135" type="line"/>
			<point x="319" y="135" type="line"/>
			<point x="153" y="555" type="line"/>
			<point x="116" y="555" type="line"/>
		</contour>
		<contour>
			<point x="226" y="0" type="curve" smooth="yes"/>
			<point x="252" y="0"/>
			<point x="282" y="46"/>
			<point x="306" y="46" type="curve" smooth="yes"/>
			<point x="332" y="46"/>
			<point x="357" y="0"/>
			<point x="383" y="0" type="curve" smooth="yes"/>
			<point x="400" y="0"/>
			<point x="405" y="17"/>
			<point x="405" y="34" type="curve" smooth="yes"/>
			<point x="405" y="141" type="line" smooth="yes"/>
			<point x="405" y="161"/>
			<point x="395" y="175"/>
			<point x="375" y="175" type="curve" smooth="yes"/>
			<point x="234" y="175" type="line" smooth="yes"/>
			<point x="214" y="175"/>
			<point x="204" y="161"/>
			<point x="204" y="141" type="curve" smooth="yes"/>
			<point x="204" y="34" type="line" smooth="yes"/>
			<point x="204" y="17"/>
			<point x="209" y="0"/>
		</contour>
		<contour>
			<point x="69" y="525" type="curve" smooth="yes"/>
			<point x="210" y="525" type="line" smooth="yes"/>
			<point x="230" y="525"/>
			<point x="240" y="539"/>
			<point x="240" y="559" type="curve" smooth="yes"/>
			<point x="240" y="666" type="line" smooth="yes"/>
			<point x="240" y="683"/>
			<point x="235" y="700"/>
			<point x="218" y="700" type="curve" smooth="yes"/>
			<point x="192" y="700"/>
			<point x="167" y="654"/>
			<point x="141" y="654" type="curve" smooth="yes"/>
			<point x="117" y="654"/>
			<point x="87" y="700"/>
			<point x="61" y="700" type="curve" smooth="yes"/>
			<point x="44" y="700"/>
			<point x="39" y="683"/>
			<point x="39" y="666" type="curve" smooth="yes"/>
			<point x="39" y="559" type="line" smooth="yes"/>
			<point x="39" y="539"/>
			<point x="49" y="525"/>
		</contour>
		<contour>
			<point x="397" y="525" type="curve" smooth="yes"/>
			<point x="538" y="525" type="line" smooth="yes"/>
			<point x="558" y="525"/>
			<point x="568" y="539"/>
			<point x="568" y="559" type="curve" smooth="yes"/>
			<point x="568" y="666" type="line" smooth="yes"/>
			<point x="568" y="683"/>
			<point x="563" y="700"/>
			<point x="546" y="700" type="curve" smooth="yes"/>
			<point x="520" y="700"/>
			<point x="495" y="654"/>
			<point x="469" y="654" type="curve" smooth="yes"/>
			<point x="445" y="654"/>
			<point x="415" y="700"/>
			<point x="389" y="700" type="curve" smooth="yes"/>
			<point x="372" y="700"/>
			<point x="367" y="683"/>
			<point x="367" y="666" type="curve" smooth="yes"/>
			<point x="367" y="559" type="line" smooth="yes"/>
			<point x="367" y="539"/>
			<point x="377" y="525"/>
		</contour>
	</outline>
</glyph>
<glyph name="W" format="2">
	<advance width="881"/>
	<unicode hex="0057"/>
	<outline>
		<contour>
			<point x="261" y="120" type="line"/>
			<point x="293" y="120" type="line"/>
			<point x="465" y="555" type="line"/>
			<point x="428" y="555" type="line"/>
			<point x="262" y="135" type="line"/>
			<point x="292" y="135" type="line"/>
			<point x="136" y="555" type="line"/>
			<point x="99" y="555" type="line"/>
		</contour>
		<contour>
			<point x="199" y="0" type="curve" smooth="yes"/>
			<point x="225" y="0"/>
			<point x="255" y="46"/>
			<point x="279" y="46" type="curve" smooth="yes"/>
			<point x="305" y="46"/>
			<point x="330" y="0"/>
			<point x="356" y="0" type="curve" smooth="yes"/>
			<point x="373" y="0"/>
			<point x="378" y="17"/>
			<point x="378" y="34" type="curve" smooth="yes"/>
			<point x="378" y="141" type="line" smooth="yes"/>
			<point x="378" y="161"/>
			<point x="368" y="175"/>
			<point x="348" y="175" type="curve" smooth="yes"/>
			<point x="207" y="175" type="line" smooth="yes"/>
			<point x="187" y="175"/>
			<point x="177" y="161"/>
			<point x="177" y="141" type="curve" smooth="yes"/>
			<point x="177" y="34" type="line" smooth="yes"/>
			<point x="177" y="17"/>
			<point x="182" y="0"/>
		</contour>
		<contour>
			<point x="52" y="525" type="curve" smooth="yes"/>
			<point x="193" y="525" type="line" smooth="yes"/>
			<point x="213" y="525"/>
			<point x="223" y="539"/>
			<point x="223" y="559" type="curve" smooth="yes"/>
			<point x="223" y="666" type="line" smooth="yes"/>
			<point x="223" y="683"/>
			<point x="218" y="700"/>
			<point x="201" y="700" type="curve" smooth="yes"/>
			<point x="175" y="700"/>
			<point x="150" y="654"/>
			<point x="124" y="654" type="curve" smooth="yes"/>
			<point x="100" y="654"/>
			<point x="70" y="700"/>
			<point x="44" y="700" type="curve" smooth="yes"/>
			<point x="27" y="700"/>
			<point x="22" y="683"/>
			<point x="22" y="666" type="curve" smooth="yes"/>
			<point x="22" y="559" type="line" smooth="yes"/>
			<point x="22" y="539"/>
			<point x="32" y="525"/>
		</contour>
		<contour>
			<point x="370" y="525" type="curve" smooth="yes"/>
			<point x="511" y="525" type="line" smooth="yes"/>
			<point x="531" y="525"/>
			<point x="541" y="539"/>
			<point x="541" y="559" type="curve" smooth="yes"/>
			<point x="541" y="666" type="line" smooth="yes"/>
			<point x="541" y="683"/>
			<point x="536" y="700"/>
			<point x="519" y="700" type="curve" smooth="yes"/>
			<point x="493" y="700"/>
			<point x="468" y="654"/>
			<point x="442" y="654" type="curve" smooth="yes"/>
			<point x="418" y="654"/>
			<point x="388" y="700"/>
			<point x="362" y="700" type="curve" smooth="yes"/>
			<point x="345" y="700"/>
			<point x="340" y="683"/>
			<point x="340" y="666" type="curve" smooth="yes"/>
			<point x="340" y="559" type="line" smooth="yes"/>
			<point x="340" y="539"/>
			<point x="350" y="525"/>
		</contour>
		<contour>
			<point x="589" y="120" type="line"/>
			<point x="621" y="120" type="line"/>
			<point x="783" y="555" type="line"/>
			<point x="746" y="555" type="line"/>
			<point x="590" y="135" type="line"/>
			<point x="620" y="135" type="line"/>
			<point x="454" y="555" type="line"/>
			<point x="417" y="555" type="line"/>
		</contour>
		<contour>
			<point x="527" y="0" type="curve" smooth="yes"/>
			<point x="553" y="0"/>
			<point x="583" y="46"/>
			<point x="607" y="46" type="curve" smooth="yes"/>
			<point x="633" y="46"/>
			<point x="658" y="0"/>
			<point x="684" y="0" type="curve" smooth="yes"/>
			<point x="701" y="0"/>
			<point x="706" y="17"/>
			<point x="706" y="34" type="curve" smooth="yes"/>
			<point x="706" y="141" type="line" smooth="yes"/>
			<point x="706" y="161"/>
			<point x="696" y="175"/>
			<point x="676" y="175" type="curve" smooth="yes"/>
			<point x="535" y="175" type="line" smooth="yes"/>
			<point x="515" y="175"/>
			<point x="505" y="161"/>
			<point x="505" y="141" type="curve" smooth="yes"/>
			<point x="505" y="34" type="line" smooth="yes"/>
			<point x="505" y="17"/>
			<point x="510" y="0"/>
		</contour>
		<contour>
			<point x="688" y="525" type="curve" smooth="yes"/>
			<point x="829" y="525" type="line" smooth="yes"/>
			<point x="849" y="525"/>
			<point x="859" y="539"/>
			<point x="859" y="559" type="curve" smooth="yes"/>
			<point x="859" y="666" type="line" smooth="yes"/>
			<point x="859" y="683"/>
			<point x="854" y="700"/>
			<point x="837" y="700" type="curve" smooth="yes"/>
			<point x="811" y="700"/>
			<point x="786" y="654"/>
			<point x="760" y="654" type="curve" smooth="yes"/>
			<point x="736" y="654"/>
			<point x="706" y="700"/>
			<point x="680" y="700" type="curve" smooth="yes"/>
			<point x="663" y="700"/>
			<point x="658" y="683"/>
			<point x="658" y="666" type="curve" smooth="yes"/>
			<point x="658" y="559" type="line" smooth="yes"/>
			<point x="658" y="539"/>
			<point x="668" y="525"/>
		</contour>
	</outline>
</glyph>
<glyph name="X" format="2">
	<advance width="600"/>
	<unicode hex="0058"/>
	<outline>
		<contour>
			<point x="73" y="0" type="curve" smooth="yes"/>
			<point x="99" y="0"/>
			<point x="129" y="46"/>
			<point x="153" y="46" type="curve" smooth="yes"/>
			<point x="179" y="46"/>
			<point x="204" y="0"/>
			<point x="230" y="0" type="curve" smooth="yes"/>
			<point x="247" y="0"/>
			<point x="252" y="17"/>
			<point x="252" y="34" type="curve" smooth="yes"/>
			<point x="252" y="141" type="line" smooth="yes"/>
			<point x="252" y="161"/>
			<point x="242" y="175"/>
			<point x="222" y="175" type="curve"/>
			<point x="81" y="175" type="line" smooth="yes"/>
			<point x="61" y="175"/>
			<point x="51" y="161"/>
			<point x="51" y="141" type="curve"/>
			<point x="51" y="34" type="line" smooth="yes"/>
			<point x="51" y="17"/>
			<point x="56" y="0"/>
		</contour>
		<contour>
			<point x="81" y="525" type="curve" smooth="yes"/>
			<point x="222" y="525" type="line" smooth="yes"/>
			<point x="242" y="525"/>
			<point x="252" y="539"/>
			<point x="252" y="559" type="curve" smooth="yes"/>
			<point x="252" y="666" type="line" smooth="yes"/>
			<point x="252" y="683"/>
			<point x="247" y="700"/>
			<point x="230" y="700" type="curve" smooth="yes"/>
			<point x="204" y="700"/>
			<point x="179" y="654"/>
			<point x="153" y="654" type="curve" smooth="yes"/>
			<point x="129" y="654"/>
			<point x="99" y="700"/>
			<point x="73" y="700" type="curve" smooth="yes"/>
			<point x="56" y="700"/>
			<point x="51" y="683"/>
			<point x="51" y="666" type="curve" smooth="yes"/>
			<point x="51" y="559" type="line" smooth="yes"/>
			<point x="51" y="539"/>
			<point x="61" y="525"/>
		</contour>
		<contour>
			<point x="394" y="0" type="curve" smooth="yes"/>
			<point x="420" y="0"/>
			<point x="450" y="46"/>
			<point x="474" y="46" type="curve" smooth="yes"/>
			<point x="500" y="46"/>
			<point x="525" y="0"/>
			<point x="551" y="0" type="curve" smooth="yes"/>
			<point x="568" y="0"/>
			<point x="573" y="17"/>
			<point x="573" y="34" type="curve" smooth="yes"/>
			<point x="573" y="141" type="line" smooth="yes"/>
			<point x="573" y="161"/>
			<point x="563" y="175"/>
			<point x="543" y="175" type="curve" smooth="yes"/>
			<point x="402" y="175" type="line" smooth="yes"/>
			<point x="382" y="175"/>
			<point x="372" y="161"/>
			<point x="372" y="141" type="curve" smooth="yes"/>
			<point x="372" y="34" type="line" smooth="yes"/>
			<point x="372" y="17"/>
			<point x="377" y="0"/>
		</contour>
		<contour>
			<point x="402" y="525" type="curve" smooth="yes"/>
			<point x="543" y="525" type="line" smooth="yes"/>
			<point x="563" y="525"/>
			<point x="573" y="539"/>
			<point x="573" y="559" type="curve" smooth="yes"/>
			<point x="573" y="666" type="line" smooth="yes"/>
			<point x="573" y="683"/>
			<point x="568" y="700"/>
			<point x="551" y="700" type="curve" smooth="yes"/>
			<point x="525" y="700"/>
			<point x="500" y="654"/>
			<point x="474" y="654" type="curve" smooth="yes"/>
			<point x="450" y="654"/>
			<point x="420" y="700"/>
			<point x="394" y="700" type="curve" smooth="yes"/>
			<point x="377" y="700"/>
			<point x="372" y="683"/>
			<point x="372" y="666" type="curve" smooth="yes"/>
			<point x="372" y="559" type="line" smooth="yes"/>
			<point x="372" y="539"/>
			<point x="382" y="525"/>
		</contour>
		<contour>
			<point x="295" y="353" type="line"/>
			<point x="326" y="339" type="line"/>
			<point x="483" y="525" type="line"/>
			<point x="440" y="525" type="line"/>
		</contour>
		<contour>
			<point x="322" y="336" type="line"/>
			<point x="289" y="350" type="line"/>
			<point x="114" y="136" type="line"/>
			<point x="156" y="136" type="line"/>
		</contour>
		<contour>
			<point x="473" y="146" type="line"/>
			<point x="517" y="146" type="line"/>
			<point x="171" y="526" type="line"/>
			<point x="126" y="526" type="line"/>
		</contour>
	</outline>
</glyph>
<glyph name="Y" format="2">
	<advance width="571"/>
	<unicode hex="0059"/>
	<outline>
		<contour>
			<point x="270" y="300" type="line"/>
			<point x="302" y="300" type="line"/>
			<point x="464" y="555" type="line"/>
			<point x="424" y="555" type="line"/>
			<point x="271" y="315" type="line"/>
			<point x="301" y="315" type="line"/>
			<point x="148" y="555" type="line"/>
			<point x="108" y="555" type="line"/>
		</contour>
		<contour>
			<point x="61" y="525" type="curve" smooth="yes"/>
			<point x="202" y="525" type="line" smooth="yes"/>
			<point x="222" y="525"/>
			<point x="232" y="539"/>
			<point x="232" y="559" type="curve" smooth="yes"/>
			<point x="232" y="666" type="line" smooth="yes"/>
			<point x="232" y="683"/>
			<point x="227" y="700"/>
			<point x="210" y="700" type="curve" smooth="yes"/>
			<point x="184" y="700"/>
			<point x="159" y="654"/>
			<point x="133" y="654" type="curve" smooth="yes"/>
			<point x="109" y="654"/>
			<point x="79" y="700"/>
			<point x="53" y="700" type="curve" smooth="yes"/>
			<point x="36" y="700"/>
			<point x="31" y="683"/>
			<point x="31" y="666" type="curve" smooth="yes"/>
			<point x="31" y="559" type="line" smooth="yes"/>
			<point x="31" y="539"/>
			<point x="41" y="525"/>
		</contour>
		<contour>
			<point x="369" y="525" type="curve" smooth="yes"/>
			<point x="510" y="525" type="line" smooth="yes"/>
			<point x="530" y="525"/>
			<point x="540" y="539"/>
			<point x="540" y="559" type="curve" smooth="yes"/>
			<point x="540" y="666" type="line" smooth="yes"/>
			<point x="540" y="683"/>
			<point x="535" y="700"/>
			<point x="518" y="700" type="curve" smooth="yes"/>
			<point x="492" y="700"/>
			<point x="467" y="654"/>
			<point x="441" y="654" type="curve" smooth="yes"/>
			<point x="417" y="654"/>
			<point x="387" y="700"/>
			<point x="361" y="700" type="curve" smooth="yes"/>
			<point x="344" y="700"/>
			<point x="339" y="683"/>
			<point x="339" y="666" type="curve" smooth="yes"/>
			<point x="339" y="559" type="line" smooth="yes"/>
			<point x="339" y="539"/>
			<point x="349" y="525"/>
		</contour>
		<contour>
			<point x="207" y="0" type="curve" smooth="yes"/>
			<point x="233" y="0"/>
			<point x="263" y="46"/>
			<point x="287" y="46" type="curve" smooth="yes"/>
			<point x="313" y="46"/>
			<point x="338" y="0"/>
			<point x="364" y="0" type="curve" smooth="yes"/>
			<point x="381" y="0"/>
			<point x="386" y="17"/>
			<point x="386" y="34" type="curve" smooth="yes"/>
			<point x="386" y="141" type="line" smooth="yes"/>
			<point x="386" y="161"/>
			<point x="376" y="175"/>
			<point x="356" y="175" type="curve"/>
			<point x="215" y="175" type="line" smooth="yes"/>
			<point x="195" y="175"/>
			<point x="185" y="161"/>
			<point x="185" y="141" type="curve"/>
			<point x="185" y="34" type="line" smooth="yes"/>
			<point x="185" y="17"/>
			<point x="190" y="0"/>
		</contour>
		<contour>
			<point x="269" y="66" type="line"/>
			<point x="303" y="66" type="line"/>
			<point x="303" y="328" type="line"/>
			<point x="269" y="328" type="line"/>
		</contour>
	</outline>
</glyph>
<glyph name="Z" format="2">
	<advance width="463"/>
	<unicode hex="005A"/>
	<outline>
		<contour>
			<point x="81" y="525" type="curve"/>
			<point x="382" y="525" type="line"/>
			<point x="402" y="525"/>
			<point x="412" y="539"/>
			<point x="412" y="559" type="curve" smooth="yes"/>
			<point x="412" y="666" type="line" smooth="yes"/>
			<point x="412" y="683"/>
			<point x="407" y="700"/>
			<point x="390" y="700" type="curve" smooth="yes"/>
			<point x="364" y="700"/>
			<point x="339" y="654"/>
			<point x="313" y="654" type="curve" smooth="yes"/>
			<point x="289" y="654"/>
			<point x="259" y="700"/>
			<point x="233" y="700" type="curve" smooth="yes"/>
			<point x="232" y="700"/>
			<point x="232" y="700"/>
			<point x="231" y="700" type="curve" smooth="yes"/>
			<point x="230" y="700" type="line" smooth="yes"/>
			<point x="204" y="700"/>
			<point x="179" y="654"/>
			<point x="153" y="654" type="curve" smooth="yes"/>
			<point x="129" y="654"/>
			<point x="99" y="700"/>
			<point x="73" y="700" type="curve" smooth="yes"/>
			<point x="56" y="700"/>
			<point x="51" y="683"/>
			<point x="51" y="666" type="curve" smooth="yes"/>
			<point x="51" y="559" type="line"/>
			<point x="51" y="539"/>
			<point x="61" y="525"/>
		</contour>
		<contour>
			<point x="73" y="0" type="curve" smooth="yes"/>
			<point x="99" y="0"/>
			<point x="129" y="46"/>
			<point x="153" y="46" type="curve" smooth="yes"/>
			<point x="179" y="46"/>
			<point x="204" y="0"/>
			<point x="230" y="0" type="curve" smooth="yes"/>
			<point x="231" y="0"/>
			<point x="231" y="0"/>
			<point x="232" y="0" type="curve" smooth="yes"/>
			<point x="233" y="0" type="line" smooth="yes"/>
			<point x="259" y="0"/>
			<point x="289" y="46"/>
			<point x="313" y="46" type="curve" smooth="yes"/>
			<point x="339" y="46"/>
			<point x="364" y="0"/>
			<point x="390" y="0" type="curve" smooth="yes"/>
			<point x="407" y="0"/>
			<point x="412" y="17"/>
			<point x="412" y="34" type="curve" smooth="yes"/>
			<point x="412" y="141" type="line" smooth="yes"/>
			<point x="412" y="161"/>
			<point x="402" y="175"/>
			<point x="382" y="175" type="curve"/>
			<point x="81" y="175" type="line"/>
			<point x="61" y="175"/>
			<point x="51" y="161"/>
			<point x="51" y="141" type="curve" smooth="yes"/>
			<point x="51" y="34" type="line"/>
			<point x="51" y="17"/>
			<point x="56" y="0"/>
		</contour>
		<contour>
			<point x="100" y="164" type="line"/>
			<point x="401" y="534" type="line"/>
			<point x="359" y="534" type="line"/>
			<point x="58" y="164" type="line"/>
		</contour>
	</outline>
</glyph>
<glyph name="e" format="2">
	<advance width="479"/>
	<unicode hex="0065"/>
	<outline>
		<contour>
			<point x="288" y="132" type="curve" smooth="yes"/>
			<point x="370" y="132"/>
			<point x="436" y="195"/>
			<point x="436" y="284" type="curve" smooth="yes"/>
			<point x="436" y="373"/>
			<point x="370" y="435"/>
			<point x="288" y="435" type="curve" smooth="yes"/>
			<point x="206" y="435"/>
			<point x="140" y="373"/>
			<point x="140" y="284" type="curve" smooth="yes"/>
			<point x="140" y="195"/>
			<point x="206" y="132"/>
		</contour>
		<contour>
			<point x="58" y="0" type="line"/>
			<point x="413" y="0" type="line"/>
			<point x="413" y="62" type="line"/>
			<point x="58" y="62" type="line"/>
		</contour>
		<contour>
			<point x="58" y="0" type="line"/>
			<point x="120" y="0" type="line"/>
			<point x="120" y="425" type="line"/>
			<point x="58" y="425" type="line"/>
		</contour>
	</outline>
</glyph>
<glyph name="i" format="2">
	<advance width="245"/>
	<unicode hex="0069"/>
	<outline>
		<contour>
			<point x="123" y="393" type="curve" smooth="yes"/>
			<point x="168" y="393"/>
			<point x="204" y="429"/>
			<point x="204" y="474" type="curve" smooth="yes"/>
			<point x="204" y="519"/>
			<point x="168" y="555"/>
			<point x="123" y="555" type="curve" smooth="yes"/>
			<point x="78" y="555"/>
			<point x="41" y="519"/>
			<point x="41" y="474" type="curve" smooth="yes"/>
			<point x="41" y="429"/>
			<point x="78" y="393"/>
		</contour>
		<contour>
			<point x="92" y="0" type="line"/>
			<point x="154" y="0" type="line"/>
			<point x="154" y="320" type="line"/>
			<point x="92" y="320" type="line"/>
		</contour>
	</outline>
</glyph>
<glyph name="Ccedilla" format="2">
	<advance width="502"/>
	<unicode hex="00C7"/>
	<outline>
		<contour>
			<point x="180" y="-220" type="curve" smooth="yes"/>
			<point x="198" y="-220"/>
			<point x="219" y="-187"/>
			<point x="239" y="-187" type="curve" smooth="yes"/>
			<point x="262" y="-187"/>
			<point x="279" y="-220"/>
			<point x="298" y="-220" type="curve" smooth="yes"/>
			<point x="310" y="-220"/>
			<point x="313" y="-208"/>
			<point x="313" y="-196" type="curve" smooth="yes"/>
			<point x="313" y="-110" type="line" smooth="yes"/>
			<point x="313" y="-93"/>
			<point x="307" y="-86"/>
			<point x="282" y="-86" type="curve" smooth="yes"/>
			<point x="195" y="-86" type="line" smooth="yes"/>
			<point x="170" y="-86"/>
			<point x="164" y="-96"/>
			<point x="164" y="-120" type="curve" smooth="yes"/>
			<point x="164" y="-196" type="line" smooth="yes"/>
			<point x="164" y="-208"/>
			<point x="168" y="-220"/>
		</contour>
		<contour>
			<point x="279" y="-116" type="line"/>
			<point x="313" y="-116" type="line"/>
			<point x="313" y="78" type="line"/>
			<point x="279" y="78" type="line"/>
		</contour>
		<component base="C" xOffset="-22"/>
	</outline>
</glyph>
<glyph name="Ntilde" format="2">
	<advance width="623"/>
	<unicode hex="00D1"/>
	<outline>
		<contour>
			<point x="177" y="727" type="curve" smooth="yes"/>
			<point x="266" y="727"/>
			<point x="338" y="727"/>
			<point x="447" y="727" type="curve" smooth="yes"/>
			<point x="468" y="727"/>
			<point x="479" y="737"/>
			<point x="479" y="757" type="curve" smooth="yes"/>
			<point x="479" y="784" type="line" smooth="yes"/>
			<point x="479" y="801"/>
			<point x="473" y="818"/>
			<point x="456" y="818" type="curve" smooth="yes"/>
			<point x="428" y="818"/>
			<point x="411" y="777"/>
			<point x="383" y="777" type="curve" smooth="yes"/>
			<point x="358" y="777"/>
			<point x="337" y="818"/>
			<point x="310" y="818" type="curve" smooth="yes"/>
			<point x="309" y="818"/>
			<point x="309" y="818"/>
			<point x="308" y="818" type="curve" smooth="yes"/>
			<point x="307" y="818" type="line" smooth="yes"/>
			<point x="279" y="818"/>
			<point x="262" y="777"/>
			<point x="235" y="777" type="curve" smooth="yes"/>
			<point x="209" y="777"/>
			<point x="196" y="818"/>
			<point x="168" y="818" type="curve" smooth="yes"/>
			<point x="150" y="818"/>
			<point x="145" y="801"/>
			<point x="145" y="784" type="curve" smooth="yes"/>
			<point x="145" y="757" type="line" smooth="yes"/>
			<point x="145" y="737"/>
			<point x="156" y="727"/>
		</contour>
		<component base="N"/>
	</outline>
</glyph>
